<svg id="Capa_2" xmlns="http://www.w3.org/2000/svg" viewBox="0 0 1130.43 1130.43"><defs><style>.cls-1{fill:#003daa;}.cls-2{fill:#029e6e;}.cls-3{fill:#fff;}.cls-4{fill:#e5bc7f;}.cls-5{fill:#d83045;}</style></defs><g id="_1_color"><g id="audax_color"><g id="dorado"><circle class="cls-4" cx="565.22" cy="565.22" r="565.22"/></g><g id="azul"><path class="cls-1" d="M1101.54,565.21c0,142.9-55.78,277.24-157.08,378.28-101.3,101.04-235.99,156.68-379.24,156.68s-277.94-55.64-379.24-156.68C84.68,842.45,28.89,708.11,28.89,565.21S84.68,287.98,185.98,186.94C287.28,85.9,421.96,30.26,565.22,30.26s277.94,55.64,379.24,156.68c101.3,101.04,157.08,235.38,157.08,378.27Z"/></g><g id="aguila"><path class="cls-4" d="M1060.24,518.38v-.12c-.02-.81-.05-1.59-.14-2.42,0-.08,0-.17-.03-.24-.26-2.36-.52-4.73-.83-7.11-.55-4.69-1.19-9.39-1.9-14.07,0-.02,0-.03-.03-.08-.69-4.59-1.44-9.14-2.26-13.72-.02-.2-.05-.41-.09-.6-.41-2.22-.83-4.43-1.25-6.62,0-.06,0-.11-.02-.15-.9-4.65-1.88-9.31-2.94-13.93-.52-2.32-1.06-4.65-1.61-6.94-.55-2.31-1.13-4.62-1.71-6.93-.57-2.29-1.19-4.59-1.8-6.88-.63-2.28-1.27-4.57-1.91-6.87-.64-2.25-1.32-4.51-1.99-6.76-.02-.06-.03-.09-.03-.15-2.05-6.77-4.25-13.52-6.59-20.2-1.5-4.34-3.07-8.67-4.69-12.95-.07-.14-.1-.27-.16-.4-.69-1.83-1.27-3.7-2.16-5.44-.19-.64-.41-1.2-.68-1.8-.8-2-1.62-4.01-2.45-6.01-.84-2.02-1.7-4.04-2.57-6.06-.08-.17-.12-.34-.2-.49-2.74-6.36-5.61-12.68-8.62-18.9-.09-.18-.17-.35-.26-.52-.31-.64-.6-1.27-.93-1.91-1.02-2.03-2.03-4.1-3.07-6.13-2.94-5.83-6.01-11.59-9.19-17.3-.9-1.62-1.82-3.26-2.75-4.88-.89-1.58-1.84-3.18-2.81-4.73-.58-1.14-1.26-2.23-1.89-3.34-.26-.46-.55-.92-.85-1.38-2.03-3.44-4.16-6.85-6.29-10.23-1.91-3-3.87-5.95-5.84-8.91-2.45-3.7-4.95-7.37-7.52-10.98-1.8-2.6-3.67-5.2-5.6-7.77-1.25-1.71-2.51-3.43-3.79-5.12-9.45-12.51-19.48-24.56-29.99-36.1-1.71-1.84-3.41-3.65-5.11-5.49-7.17-7.6-14.6-14.97-22.22-22.11-1.44-1.35-2.84-2.66-4.28-3.96-1.45-1.38-2.95-2.72-4.45-4.05-.76-.7-1.56-1.42-2.34-2.11-.76-.69-1.53-1.39-2.34-2.06-.12-.14-.29-.26-.43-.38-5.35-4.65-10.8-9.19-16.33-13.61-1.35-1.07-2.69-2.13-4.08-3.2-.44-.37-.92-.75-1.38-1.09-1.3-.99-2.57-2-3.88-2.97-.76-.63-1.54-1.21-2.34-1.79-1.25-.92-2.48-1.85-3.76-2.78-1.68-1.25-3.38-2.49-5.11-3.7-1.96-1.42-3.93-2.83-5.92-4.19-2.8-1.96-5.58-3.85-8.43-5.73-1.44-.96-2.92-1.94-4.37-2.89-.9-.58-1.8-1.16-2.72-1.73-1.1-.75-2.22-1.44-3.33-2.16-1.42-.89-2.84-1.77-4.28-2.65-.37-.24-.75-.47-1.13-.7-1.35-.84-2.74-1.68-4.1-2.51-1.67-.98-3.33-1.97-5.02-2.94-.18-.14-.41-.24-.6-.35-2.17-1.27-4.39-2.52-6.58-3.76-.09-.03-.15-.09-.23-.12-2.28-1.28-4.6-2.55-6.91-3.82l-2.34-1.24c-6.47-3.44-13.01-6.74-19.63-9.91-6.61-3.15-13.3-6.16-20.05-9.01-6.84-2.91-13.75-5.66-20.72-8.24-2.11-.78-4.16-1.54-6.41-1.88-1.1-.17-2.23-.24-3.35-.18-.58,.02-1.18,.08-1.76,.17-.5,.09-1.13,.37-1.64,.37-3.59,.98-6.79,3.2-9.02,6.16l-71.77,97.38s-.06,.11-.08,.11l-.2,.28-2.06-.41h-.08l-10.92-2.05s-.06-.03-.09-.03l-2.29-.43-.05-.23c-.03-.06-.05-.17-.06-.21-.14-.58-.26-1.18-.38-1.8-.31-1.44-.61-2.87-.89-4.3-.05-.08-.06-.17-.06-.24-1.83-8.64-3.65-17.26-5.46-25.92-.57-2.65-1.1-5.29-1.67-7.95-.02-.12-.06-.21-.08-.35-3.46-19.82-6.64-39.84-12.39-58.72-.02-.06-.03-.12-.06-.15-2.55-8.5-5.66-16.74-9.54-24.65-.12-.14-.21-.29-.31-.46,1.85-1.56,3.15-3.84,4.07-6.36,.08-.24,.15-.47,.24-.72,2.11-6.47,1.91-14.39,1.76-16.99,0-.14-.02-.29-.02-.41-.02-.17-.03-.29-.03-.37-.03,.03-.06,.06-.12,.09-.05,.06-.09,.14-.15,.2-.02,.03-.05,.06-.08,.11-.05,.03-.11,.09-.18,.14-.08,.08-.17,.14-.28,.2-.11,.09-.28,.17-.43,.24-.02,.02-.06,.03-.09,.06-4.02,2.6-10.41,3.38-17.69,3.21h-.05c-9.96,0-19.86-1.85-29.71-3.15-5.43-.72-10.93-1.15-16.38-.5-5.47,.64-10.44,2.78-14.99,5.86-3.17,2.22-5.83,4.89-8.17,7.95-.6,.76-1.16,1.54-1.7,2.34-.26,.38-.52,.75-.76,1.13-.14,.2-.28,.41-.4,.63-.05,.06-.31,.6-.37,.6-.26,0-.53,0-.83,.02-.28,0-.58,0-.86,.03-.24,.02-.5,.02-.75,.02-6.25,0-12.91,2.89-17.95,6.41-7.74,5.38-13.33,13.4-17.28,21.85-.24,.52-.49,1.06-.73,1.59-.08,.17-.61,1.71-.72,1.71-.43,1.02-.87,2.08-1.28,3.18-.21,.6-.44,1.19-.67,1.82,.06,0,.14-.03,.23-.06,.02-.02,.05-.02,.08-.02,5.34-2.39,9.43-3.78,12.72-4.43,.02-.03,.03-.03,.06-.03,.55-.14,1.12-.29,1.68-.43,.13-.03,.27-.06,.4-.09,4.85-1.09,9.83,.57,13.29,4.14,1.05,1.09,2.29,2.18,3.74,3.21,1.19,.85,2.44,1.62,3.73,2.31,1.11,.6,2.26,1.13,3.44,1.6,1.48,.58,3.01,1.03,4.57,1.33,1.58,.3,2.95,.36,4.54,.57,0,0-.22,2.72-.34,3.42-2.1,12.01-4.13,24-6.72,35.93-1.1,5.06-1.95,10.19-3.21,15.22-.06,.2-.09,.41-.15,.63-.26,1.3-.52,2.61-.81,3.93-.12,.55-.21,1.13-.35,1.7-.03,.2-.09,.4-.11,.58-.05,.17-.08,.35-.11,.54-.28,1.24-.55,2.48-.8,3.72-.09,.41-.17,.83-.26,1.22-.17,.83-.34,1.64-.52,2.46l-1.93,9.14-.87,4.11c-.06,.34-.14,.67-.21,1.04-.17,.76-.34,1.54-.5,2.31-.02,.05-.75,.12-.83,.14-.29,.05-.58,.09-.87,.14-.3,.05-.59,.1-.89,.15-1.26,.22-3.32,.59-4.58,.84s-2.49,.48-3.72,.73c-1.25,.24-2.48,.5-3.72,.76l-1.12,.21s-.08,.02-.09,.02l-.08-.14-23.29-31.59-.12-.17-44.38-60.23-4.39-5.96c-3.39-4.71-9.36-7.34-15.11-6.62-3.07,.4-6.01,1.48-8.92,2.6-9.28,3.56-18.47,7.34-27.57,11.35-1.56,.69-3.09,1.39-4.63,2.09-1.01,.46-2.03,.93-3.06,1.39-3.36,1.58-6.73,3.17-10.08,4.85-.93,.43-1.85,.9-2.78,1.36-1.48,.73-2.94,1.47-4.4,2.22-1.14,.62-2.34,1.21-3.48,1.83-1.21,.59-2.39,1.23-3.57,1.86-.92,.47-1.87,1.01-2.78,1.49-1.76,.95-3.52,1.91-5.26,2.87-2.25,1.25-4.48,2.52-6.68,3.81-2.25,1.27-4.43,2.57-6.64,3.9-2.22,1.32-4.4,2.65-6.58,3.99-2.19,1.35-4.36,2.71-6.51,4.1-2.14,1.38-4.31,2.77-6.42,4.19-2.14,1.42-4.27,2.84-6.39,4.3-2.11,1.47-4.21,2.91-6.3,4.39-2.08,1.5-4.16,2.98-6.22,4.5-.55,.4-1.09,.8-1.65,1.21-1.27,.95-2.57,1.91-3.85,2.86-.02,.02-.08,.06-.12,.09-3.61,2.72-7.16,5.49-10.69,8.3-2,1.58-3.99,3.21-5.98,4.82-1.56,1.27-3.12,2.58-4.68,3.91-2.65,2.22-5.28,4.48-7.88,6.76-1.79,1.58-3.56,3.17-5.35,4.77-.46,.44-.93,.84-1.39,1.3-1.9,1.7-3.79,3.46-5.66,5.21-2.1,1.99-4.17,3.98-6.25,5.96-.05,.06-.09,.12-.17,.18-6.24,6.12-12.36,12.37-18.3,18.84l-.09,.09c-1.99,2.14-3.96,4.3-5.89,6.48-3.93,4.4-7.75,8.87-11.51,13.4-1.91,2.29-3.76,4.59-5.6,6.9-1.85,2.29-3.69,4.63-5.49,6.97-1.8,2.34-3.59,4.68-5.37,7.06-1.76,2.39-3.52,4.77-5.23,7.19-1.56,2.16-3.09,4.33-4.59,6.51-2.91,4.16-5.7,8.35-8.46,12.57-1.41,2.14-2.75,4.28-4.11,6.45-1.04,1.64-2.05,3.26-3.04,4.91-.41,.66-.8,1.28-1.18,1.94-.99,1.61-1.96,3.24-2.89,4.85-.37,.58-.67,1.15-.99,1.68-1.25,2.14-2.48,4.24-3.67,6.38-.95,1.7-1.91,3.38-2.83,5.09-.43,.76-.86,1.54-1.25,2.28-.61,1.12-1.21,2.23-1.79,3.33-.69,1.32-1.39,2.6-2.06,3.93-.55,1.06-1.1,2.09-1.62,3.17-.58,1.09-1.15,2.19-1.68,3.29-.7,1.38-1.38,2.74-2.02,4.08-.5,.98-.98,1.94-1.45,2.92-.53,1.15-1.09,2.26-1.61,3.41-.63,1.3-1.24,2.6-1.83,3.9-.6,1.28-1.19,2.58-1.77,3.88-.35,.76-.69,1.51-1.02,2.26-.92,2.06-1.84,4.13-2.72,6.22-.02,.05-.03,.08-.05,.11-.95,2.17-1.87,4.36-2.77,6.56-.11,.28-.23,.54-.32,.83-.92,2.2-1.82,4.42-2.68,6.65-.05,.06-.06,.11-.09,.17-.41,1.07-.83,2.11-1.25,3.2-.06,.15-.12,.32-.17,.47-.84,2.19-1.67,4.37-2.49,6.59-.52,1.42-1.06,2.86-1.56,4.3-1.15,3.18-2.28,6.42-3.35,9.65-.58,1.74-1.16,3.47-1.7,5.2-.58,1.76-1.15,3.52-1.67,5.28-.5,1.56-.98,3.12-1.42,4.66-.57,1.82-1.09,3.61-1.59,5.43-.57,1.91-1.09,3.79-1.61,5.69-.49,1.79-.98,3.58-1.44,5.37-.34,1.27-.66,2.54-.98,3.79-.4,1.5-.75,3-1.12,4.5-.57,2.28-1.12,4.59-1.62,6.87-.02,.05-.02,.08-.03,.14-.52,2.25-1.01,4.51-1.5,6.77-.34,1.59-.67,3.18-.99,4.77-.12,.7-.29,1.42-.43,2.13-.46,2.31-.9,4.62-1.33,6.94-1.27,6.94-2.42,13.95-3.38,20.95-.02,.05-.02,.09-.02,.15-.15,1.06-.32,2.11-.46,3.18-.12,1.06-.28,2.11-.41,3.18-.26,2.11-.52,4.25-.76,6.36-.2,1.94-.28,3.87-.15,5.77,.05,.66,.09,1.32,.17,1.94,.15,1.3,.38,2.55,.67,3.81,.31,1.25,.67,2.45,1.12,3.64,2.17,5.93,5.96,11.12,10.9,14.96,.52,.43,1.07,.83,1.61,1.19,.28,.21,.58,.4,.86,.58,.64,.4,1.28,.78,1.91,1.15,1.09,.6,2.19,1.15,3.35,1.62,.39,.18,.81,.33,1.19,.49,.48,.2,1.28,.47,1.78,.61,.23,.07,.46,.13,.68,.2,.67,.2,1.78,.48,2.47,.62l1.15,.23c.4,.06,.78,.12,1.16,.17,.37,.05,.75,.09,1.12,.14,.15,.03,.32,.03,.49,.05,.47,.05,.9,.08,1.33,.09,.09,.02,.17,.02,.28,.02,.05-1.28,.12-2.55,.17-3.85,.21-3.87,.46-7.71,.72-11.55,.2-2.54,.41-5.09,.66-7.65,.21-2.52,.47-5.09,.75-7.62,.43-3.82,.87-7.6,1.38-11.39,.69-5.06,1.44-10.08,2.28-15.06,.21-1.25,.43-2.51,.64-3.76,4.85-27.43,12.14-54.18,21.67-79.95,1.74-4.68,3.55-9.36,5.43-13.96,1.76-4.24,3.53-8.43,5.37-12.59,.24-.54,.46-1.07,.7-1.62,.81-1.77,1.64-3.56,2.46-5.37,1.19-2.55,2.37-5.14,3.61-7.69,2.23-4.63,4.57-9.24,6.97-13.78,1.07-2.03,2.16-4.05,3.26-6.06,1.16-2.17,2.37-4.34,3.61-6.48,2.45-4.37,5-8.7,7.62-12.98,1.28-2.14,2.6-4.25,3.93-6.35,1.18-1.87,2.37-3.75,3.59-5.6,.9-1.38,1.82-2.75,2.75-4.11,.34-.58,.75-1.15,1.12-1.73,.66-.98,1.33-1.97,2.05-2.95,.78-1.19,1.61-2.4,2.45-3.55,.35-.55,.75-1.09,1.12-1.62,.96-1.35,1.9-2.69,2.89-4.02,.5-.72,1.02-1.45,1.56-2.17,1.12-1.54,2.26-3.09,3.41-4.6,.11-.14,.21-.29,.34-.44,1.1-1.48,2.2-2.94,3.35-4.42,.52-.69,1.09-1.41,1.64-2.09,1.64-2.13,3.3-4.25,4.99-6.32,2.34-2.89,4.69-5.73,7.1-8.55,1.9-2.23,3.76-4.4,5.69-6.58,.17-.18,.34-.37,.5-.57,.87-1.01,1.76-2.02,2.66-3.01,.41-.46,.84-.93,1.25-1.38,.35-.4,.7-.76,1.06-1.16,.7-.76,1.41-1.56,2.13-2.32,.53-.58,1.09-1.16,1.62-1.76,.44-.46,.89-.93,1.33-1.41,.23-.21,.43-.44,.64-.67,.63-.69,1.3-1.38,1.96-2.06,.78-.83,1.59-1.65,2.4-2.48,.11-.11,.2-.23,.31-.32,.64-.66,1.28-1.33,1.93-1.97,1.06-1.09,2.13-2.14,3.18-3.18,.52-.54,1.02-1.01,1.53-1.53l.63-.63c1.1-1.1,2.22-2.17,3.35-3.26,1.09-1.07,2.19-2.11,3.3-3.17,.7-.67,1.42-1.35,2.13-2,7.58-7.17,15.4-14.07,23.49-20.64-3.98,3.27-7.89,6.65-11.76,10.08,1.51-1.33,3.07-2.66,4.62-3.99,3.73-3.15,7.52-6.25,11.36-9.31,.41-.32,.83-.66,1.24-.98,2.75-2.19,5.54-4.33,8.33-6.42,2.03-1.56,4.07-3.06,6.13-4.54,2.55-1.87,5.18-3.69,7.78-5.49,.7-.54,1.44-1.06,2.17-1.54,1.96-1.35,3.95-2.68,5.9-3.98,.81-.52,1.61-1.07,2.42-1.59,2.29-1.51,4.62-3.01,6.94-4.5,1.19-.75,2.4-1.5,3.59-2.25,1.94-1.19,3.88-2.39,5.86-3.55,2.14-1.32,4.3-2.57,6.47-3.82,.06-.02,.11-.08,.18-.09,2.17-1.25,4.34-2.49,6.51-3.69,2.23-1.24,4.45-2.45,6.68-3.62l1.41-.63,19.67-8.4c.14-.09,.31-.17,.46-.23,.18-.08,.38-.17,.57-.21,.26-.12,.52-.23,.81-.34,.06-.05,.17-.06,.23-.09,.2-.06,.37-.14,.55-.2,.44-.18,.92-.35,1.41-.49,.5-.17,.99-.29,1.5-.44,.44-.11,.86-.23,1.3-.32,.29-.08,.55-.12,.81-.18,2.43-.5,4.89-.75,7.32-.75,.44,0,.87,.02,1.31,.05,2.2,.08,4.37,.35,6.51,.81,.43,.11,.86,.21,1.27,.31,.43,.11,.86,.23,1.27,.35,.05,0,.08,.02,.12,.05,.47,.12,.95,.29,1.44,.44,.44,.16,.85,.33,1.28,.47l1.28,.53c.26,.13,.53,.24,.81,.36,.32,.14,.64,.31,.95,.47,1.62,.78,3.17,1.7,4.65,2.75,.4,.26,.75,.54,1.12,.83,.46,.34,.9,.69,1.33,1.04,.32,.29,.63,.55,.93,.81,.37,.34,.73,.67,1.09,1.01,.37,.34,.7,.7,1.04,1.07,.84,.87,1.65,1.8,2.4,2.78,.17,.23,.34,.44,.5,.66l.11,.12,1.48,2.02,14.3,19.41,10.17,13.81,11.5,15.66s.5,.67,.52,.7c-7.75,2.52-15.43,5.31-23.01,8.33-16.65,6.68-32.83,14.56-48.35,23.6-5.66,3.29-11.24,6.71-16.7,10.31-12.34,8.04-24.21,16.87-35.58,26.36-2.52,2.14-5.02,4.28-7.48,6.45-1.24,1.12-2.48,2.22-3.69,3.32-1.24,1.09-2.43,2.2-3.64,3.33-2.39,2.23-4.77,4.51-7.11,6.79-1.16,1.13-2.31,2.29-3.47,3.46l-.34,.34c-1.04,1.06-2.06,2.11-3.09,3.17-1.13,1.18-2.26,2.36-3.36,3.53-1.15,1.21-2.25,2.4-3.33,3.59-1.1,1.19-2.22,2.42-3.3,3.64-1.07,1.21-2.16,2.43-3.23,3.65-1.07,1.22-2.14,2.46-3.18,3.72-1.06,1.22-2.09,2.48-3.15,3.73-1.01,1.24-2.02,2.48-3.03,3.73-.69,.86-1.41,1.74-2.08,2.62-3.36,4.25-6.64,8.56-9.8,12.95-2.92,4.05-5.77,8.17-8.52,12.33-.69,1.02-1.36,2.03-2.02,3.09-.7,1.1-1.42,2.2-2.11,3.33-.51,.78-1.03,1.58-1.52,2.38-.73,1.19-1.93,3.13-2.65,4.32-.64,1.03-1.26,2.1-1.87,3.15-1.24,2.08-2.45,4.21-3.61,6.3-.66,1.13-1.28,2.26-1.91,3.39-.18,.34-.4,.72-.6,1.09-.58,1.1-1.18,2.19-1.76,3.3-.24,.43-.49,.86-.7,1.3-.6,1.09-1.18,2.22-1.73,3.32-.26,.49-.5,.96-.75,1.45-.57,1.09-1.1,2.17-1.65,3.27-.99,1.97-1.94,3.96-2.88,5.93-.64,1.3-1.22,2.58-1.82,3.87-.73,1.58-1.44,3.15-2.16,4.73-.67,1.53-1.35,3.06-2,4.6-.55,1.28-1.1,2.6-1.64,3.88-.15,.34-.29,.66-.41,.99-.05,.09-.08,.21-.12,.31-.6,1.47-1.06,2.94-1.42,4.43-.26,1.04-.47,2.09-.63,3.15-.75,5.15-.26,10.29,1.3,15.09,.41,1.21,.89,2.4,1.45,3.56,.72,1.59,1.56,3.13,2.55,4.6,.73,1.09,1.5,2.14,2.36,3.15,3.98,4.62,9.27,8.23,15.6,10.14,.02,0,.03,.02,.05,.02,0-.02,.03-.03,.03-.05,4.07-13.53,8.91-26.65,14.51-39.36,.44-1.01,.9-1.99,1.35-3.01,1.22-2.66,2.48-5.34,3.75-7.97,2.92-6.04,6.01-11.97,9.25-17.78,10.11-18.04,21.76-35,34.8-50.72,2.39-2.84,4.79-5.67,7.25-8.43,7.39-8.35,15.19-16.27,23.35-23.81,9.51-8.79,19.56-17.04,30.05-24.68,2.98-2.17,6.02-4.33,9.08-6.42,3.07-2.08,6.18-4.1,9.33-6.1,3.15-1.97,6.32-3.93,9.54-5.8,9.63-5.66,19.56-10.84,29.77-15.54,5.14-2.34,10.32-4.56,15.55-6.65,7-2.81,14.11-5.37,21.32-7.71,3.61-1.16,7.25-2.26,10.92-3.33,3.65-1.06,7.34-2.03,11.04-2.98,3.69-.93,7.43-1.8,11.22-2.61,0,.02-.02,.05-.02,.06,.02-.02,.06-.02,.08-.02,0,0,.06,0,.03,.03,1.41-.31,2.83-.6,4.24-.86,1.35-.29,2.68-.55,4.02-.8,1.59-.29,3.18-.6,4.79-.87,1.44-.24,2.91-.49,4.36-.73,1.47-.24,2.97-.44,4.43-.67,1.47-.23,2.97-.43,4.45-.61,2.49-.33,4.98-.62,7.48-.9,.62-.57,1.21-1.1,1.83-1.67,.31-1.45,.59-2.83,.89-4.25,.12-.5,.23-1.02,.32-1.54,.78-3.59,1.56-7.19,2.32-10.77,.11-.55,.29-1.39,.52-2.46,.06-.24,.09-.5,.17-.75,.02-.15,.08-.32,.09-.49,.08-.34,.15-.67,.23-1.01,.7-3.29,1.67-7.69,2.58-11.91,.8-3.67,1.56-7.23,2.17-9.92,.02-.17,.05-.34,.09-.49,.08-.29,.12-.55,.18-.84,.18-.87,.35-1.64,.49-2.2l.17-.84,.05-.23s.03-.08,.03-.08l.29-1.45h.12l25.46,2.16,17.54,1.48,.89,4.36,6.53,33.03s1.82,9.13,1.83,9.13c1.41,.11,2.91,.26,4.5,.44,.52,.06,1.06,.14,1.61,.2,.35,.03,.7,.08,1.09,.11,19.36,1.9,38.6,5.35,57.36,10.49,17.85,4.91,35.25,11.39,51.98,19.27,10.38,4.91,20.67,10.26,30.45,16.33,4.97,2.97,9.83,6.07,14.6,9.33,.81,.52,1.59,1.07,2.39,1.59,2.29,1.59,4.57,3.2,6.82,4.83,1.3,.95,2.6,1.91,3.87,2.86,2.71,1.99,5.35,4.04,8,6.13,1.02,.83,2.08,1.65,3.1,2.49,1.7,1.36,3.41,2.78,5.08,4.21,.93,.76,1.85,1.56,2.77,2.34,.69,.63,1.39,1.24,2.09,1.84l2.52,2.25c1.01,.9,2.02,1.82,3.01,2.74,.32,.28,.63,.55,.93,.86,.78,.73,1.59,1.47,2.37,2.22,1.76,1.64,3.49,3.3,5.18,4.97,.98,.93,1.91,1.88,2.84,2.81,1.18,1.18,2.37,2.39,3.52,3.59,1.15,1.16,2.26,2.34,3.39,3.52,.05,.08,.12,.15,.18,.24,1.12,1.16,2.23,2.35,3.32,3.56,1.12,1.24,2.23,2.46,3.35,3.73,.92,1.04,1.84,2.06,2.72,3.12,1.06,1.19,2.1,2.43,3.13,3.65,.92,1.09,1.8,2.17,2.69,3.26,.83,.99,1.62,1.99,2.43,3,.83,1.02,1.62,2.03,2.43,3.09,.86,1.09,1.7,2.19,2.57,3.33,1.01,1.3,1.99,2.61,2.97,3.95,.05,.03,.08,.09,.11,.15,.98,1.3,1.96,2.61,2.89,3.96,.99,1.36,1.94,2.75,2.92,4.11,.93,1.36,1.87,2.74,2.78,4.1,.06,.09,.14,.18,.18,.28,.9,1.33,1.8,2.66,2.65,4.01,.99,1.5,1.94,3,2.87,4.51,.43,.64,.84,1.32,1.24,1.97,.09,.17,.2,.34,.32,.52,.29,.49,.6,.95,.89,1.44,.66,1.06,1.3,2.11,1.91,3.18,.63,1.02,1.24,2.06,1.83,3.1,.18,.31,.35,.6,.52,.9,1.39,2.42,2.75,4.85,4.08,7.29,.58,1.06,1.16,2.14,1.73,3.2,.72,1.38,1.44,2.74,2.13,4.13,.5,.98,1.01,1.97,1.5,2.97,4.13,8.2,7.92,16.62,11.35,25.19,.63,1.58,1.25,3.17,1.85,4.76,.05,.11,.08,.2,.12,.29,.69,1.82,1.35,3.64,2.02,5.44,.44,1.22,.87,2.42,1.3,3.65,.03,.14,.09,.24,.12,.4,.55,1.54,1.09,3.1,1.59,4.69,.41,1.25,.83,2.51,1.24,3.78,.17,.57,.34,1.1,.5,1.65,.4,1.19,.75,2.39,1.1,3.58,.58,1.91,1.15,3.84,1.67,5.75,.05,0,.06-.02,.09-.02,1.38-.38,2.71-.84,3.93-1.39,.34-.12,.67-.28,1.01-.43,.61-.28,1.16-.57,1.73-.87,.32-.15,.61-.32,.92-.5,.54-.29,1.07-.63,1.58-.96,.26-.17,.53-.35,.8-.55,.38-.24,.75-.52,1.1-.78,.12-.09,.23-.2,.34-.29,.61-.46,1.19-.93,1.79-1.47,1.33-1.18,2.54-2.46,3.62-3.82,.28-.37,.57-.72,.81-1.07,.26-.35,.52-.72,.76-1.09,.06-.06,.09-.09,.12-.17,0-.02,.03-.02,.03-.06,.21-.34,.44-.67,.64-1.01,.46-.75,.89-1.5,1.3-2.26,0-.02,.02-.03,.02-.06,.41-.78,.78-1.59,1.15-2.42,.12-.32,.28-.67,.38-1.02,.49-1.24,.9-2.52,1.21-3.81,.08-.31,.15-.61,.2-.9,.06-.21,.09-.4,.14-.6,.38-1.97,.61-3.99,.61-6.02,.02-.15,.02-.29,.02-.46v-.43c0-.47-.04-.94-.06-1.41s-.03-.93-.11-1.4c-.09-.99-.24-1.99-.43-2.97-.29-1.54-.7-3.1-1.24-4.62-.14-.41-.29-.83-.44-1.24-.92-2.36-1.85-4.68-2.8-6.99-.96-2.34-1.96-4.65-2.97-6.97-.5-1.13-1.01-2.28-1.53-3.44-.5-1.13-1.02-2.28-1.56-3.43-1.06-2.28-2.13-4.54-3.23-6.8-.64-1.28-1.25-2.6-1.91-3.88-.66-1.32-1.31-2.6-1.99-3.9-1.99-3.85-4.04-7.69-6.18-11.48-.52-.93-1.04-1.87-1.59-2.78-.89-1.59-1.8-3.17-2.77-4.76-.72-1.25-1.47-2.49-2.22-3.73-1.5-2.48-3.03-4.95-4.6-7.37-.76-1.24-1.58-2.45-2.36-3.67-.78-1.15-1.54-2.31-2.34-3.47-.58-.89-1.18-1.8-1.82-2.68-.89-1.3-1.77-2.6-2.69-3.87-.99-1.45-2.02-2.89-3.09-4.34-1.02-1.42-2.08-2.83-3.15-4.25-1.06-1.42-2.13-2.84-3.2-4.25-.63-.83-1.27-1.64-1.93-2.45-1.53-1.96-3.1-3.93-4.69-5.87-2.23-2.72-4.47-5.43-6.8-8.1-.05-.03-.08-.09-.15-.15-1.09-1.25-2.17-2.51-3.27-3.73-.06-.08-.15-.17-.23-.28-1.16-1.28-2.32-2.57-3.49-3.85-1.1-1.19-2.22-2.39-3.35-3.56-.17-.2-.35-.4-.54-.6-.95-1.02-1.9-2-2.84-3-.2-.21-.4-.41-.6-.63-2.49-2.54-5-5.06-7.58-7.55-1.27-1.25-2.55-2.49-3.85-3.72-1.22-1.16-2.46-2.32-3.7-3.47-.03-.03-.09-.05-.11-.11-.05-.02-.08-.06-.09-.09-.21-.17-.41-.35-.64-.55-1.77-1.62-3.59-3.26-5.41-4.86-1.61-1.42-3.21-2.8-4.85-4.19-.64-.58-1.3-1.12-1.97-1.67-1.06-.9-2.08-1.76-3.15-2.6-2-1.67-4.01-3.3-6.06-4.89-.86-.67-1.71-1.35-2.57-1.99-3.52-2.74-7.05-5.37-10.66-7.95-1.25-.92-2.52-1.82-3.82-2.68-2.08-1.5-4.17-2.92-6.27-4.33-1.25-.84-2.51-1.68-3.78-2.51-6.04-3.93-12.17-7.66-18.41-11.22-1.04-.6-2.09-1.19-3.13-1.77-8.26-4.6-16.68-8.87-25.26-12.83-8.82-4.1-17.82-8.03-26.96-11.27-2.89-1.02-5.77-2.08-8.62-3.21-1.44-.58-2.88-1.16-4.31-1.79-1.18-.52-3.88-1.71-3.88-1.71,.58-.86,1.19-1.68,1.79-2.52,3.58-5.03,6.9-9.62,9.97-13.81,.99-1.35,1.99-2.66,2.92-3.93,.09-.14,.21-.29,.34-.43,.4-.54,.78-1.06,1.16-1.56,.38-.5,.75-1.01,1.13-1.5,1.12-1.5,2.2-2.92,3.26-4.28,.35-.44,.7-.9,1.04-1.35,1.93-2.51,3.75-4.8,5.44-6.93,.02-.02,.05-.05,.06-.08,1.68-2.09,3.23-3.99,4.69-5.73,.26-.29,.5-.58,.75-.87,4.86-5.6,9.45-11.55,15.69-15.74,5.73-3.84,12.65-5.96,19.56-5.96,1.71,0,3.46,.14,5.18,.4,.52,.08,1.07,.17,1.59,.28,.05,0,.11,0,.17,.05,.35,.03,.69,.12,1.02,.21,.5,.09,.99,.23,1.5,.4,.37,.09,.75,.18,1.12,.32,.47,.15,.96,.29,1.42,.49,.55,.2,1.13,.43,1.67,.64,.2,.08,.38,.15,.57,.23,.01,.02,.06,.02,.08,.05l1.35,.6,20.11,8.99c2.57,1.38,5.08,2.75,7.6,4.16,1.94,1.07,3.87,2.17,5.78,3.29,.15,.08,.28,.15,.43,.24,1.54,.89,3.09,1.77,4.62,2.72,.87,.5,1.74,1.02,2.58,1.54,1.59,.93,3.15,1.9,4.69,2.86,2.97,1.82,5.89,3.69,8.78,5.58,1.71,1.09,3.39,2.2,5.06,3.35,1.77,1.18,3.56,2.42,5.35,3.62,.57,.41,1.15,.81,1.73,1.24,.21,.11,.41,.24,.6,.41,1.91,1.32,3.76,2.66,5.64,3.99,1.33,.96,2.65,1.93,3.95,2.91,4.94,3.62,9.79,7.36,14.54,11.19,1.45,1.16,2.91,2.32,4.33,3.52,.41,.32,.83,.66,1.22,.99,1.18,.99,2.36,1.96,3.52,2.94,.87,.75,1.76,1.51,2.66,2.26,3.44,2.95,6.87,5.96,10.21,9.05,1.76,1.59,3.5,3.2,5.26,4.85,1.48,1.41,2.98,2.83,4.45,4.25,.92,.87,1.83,1.76,2.72,2.68,.75,.73,1.5,1.45,2.25,2.2,1.09,1.06,2.14,2.13,3.17,3.18,.14,.12,.24,.21,.34,.34,1.41,1.41,2.78,2.83,4.16,4.27,1.44,1.5,2.87,3.03,4.3,4.53,1.44,1.54,2.84,3.09,4.25,4.63,1.41,1.54,2.8,3.07,4.17,4.63,4.14,4.69,8.2,9.47,12.16,14.31,3.93,4.85,7.78,9.74,11.53,14.74,2.91,3.9,5.78,7.83,8.58,11.79,1.33,1.93,2.68,3.85,3.99,5.78,.11,.15,.2,.28,.29,.44,1.22,1.76,2.4,3.55,3.58,5.34,.23,.32,.43,.64,.64,.95,1.1,1.67,2.19,3.35,3.26,5.05,.26,.38,.5,.78,.75,1.18,2.46,3.9,4.89,7.86,7.26,11.84,.11,.18,.2,.35,.32,.52,1.1,1.93,2.23,3.84,3.33,5.77,1.19,2.11,2.4,4.24,3.58,6.36,.17,.32,.34,.63,.5,.92,1.79,3.3,3.55,6.61,5.29,9.94,1.45,2.84,2.91,5.7,4.3,8.56,1.07,2.17,2.13,4.34,3.15,6.51,.81,1.73,1.61,3.43,2.4,5.17,.52,1.13,1.04,2.28,1.54,3.43,.66,1.45,1.32,2.92,1.97,4.4,.84,1.97,1.68,3.93,2.51,5.93,.43,1.01,.86,2.02,1.27,3.06,1.47,3.61,2.92,7.23,4.3,10.89,.43,1.1,.84,2.22,1.25,3.35,.49,1.24,.93,2.49,1.39,3.72,.34,.93,.67,1.85,.99,2.8,1.36,3.81,2.65,7.63,3.9,11.44,.31,.95,.63,1.88,.9,2.81,.49,1.45,.93,2.92,1.39,4.37,.69,2.31,1.38,4.59,2.05,6.88,.4,1.33,.76,2.66,1.15,3.99,.5,1.8,1.01,3.61,1.5,5.43,.35,1.36,.72,2.74,1.09,4.11,.11,.47,.24,.92,.35,1.41,.43,1.68,.86,3.38,1.25,5.09,.2,.75,.4,1.5,.57,2.26,.47,2.03,.95,4.1,1.42,6.15,.35,1.65,.72,3.27,1.06,4.94,.03,.05,.03,.09,.03,.12,.23,1.06,.44,2.13,.67,3.2,.02,.12,.05,.26,.06,.38,.41,1.94,.78,3.87,1.15,5.81,.44,2.42,.9,4.82,1.32,7.25,.43,2.42,.83,4.88,1.21,7.28,.38,2.42,.73,4.83,1.07,7.25,0,.02,.02,.06,.02,.09,.46,3.29,.9,6.61,1.27,9.92,.15,1.27,.32,2.52,.44,3.79,.31,2.75,.6,5.47,.84,8.26,.11,1.06,.2,2.11,.28,3.17,.23,2.57,.41,5.11,.58,7.68,.11,1.39,.18,2.77,.26,4.17,.09,1.51,.18,3.04,.24,4.59,.11,2.19,.18,4.39,.26,6.61,.09,0,.18,0,.26-.03,.55-.02,1.09-.03,1.59-.09,.29-.02,.55-.05,.83-.09,.38-.03,.75-.08,1.1-.15,.24-.02,.46-.05,.66-.09,.5-.08,.98-.17,1.44-.28,.15-.02,.31-.05,.43-.09,.54-.12,1.06-.24,1.56-.38,.16-.04,.3-.09,.46-.12,1.21-.21,2.36-.69,3.46-1.23,.09-.04,.16-.07,.27-.12,.4-.17,.81-.34,1.18-.54,.24-.11,.49-.23,.73-.37,.43-.21,.84-.43,1.24-.64,.05-.03,.11-.05,.18-.11,.58-.34,1.16-.67,1.71-1.02,.57-.37,1.12-.73,1.64-1.13,.05-.05,.12-.09,.18-.12,.4-.31,.78-.63,1.19-.96,.12-.09,.26-.2,.38-.29,.46-.41,.93-.81,1.38-1.24,.81-.76,1.59-1.56,2.34-2.4,.37-.43,.73-.87,1.09-1.32,.37-.46,.7-.9,1.01-1.38,.66-.92,1.28-1.85,1.83-2.84,.57-.99,1.07-2,1.51-3.03,.23-.52,.46-1.04,.66-1.58,.21-.54,.41-1.09,.58-1.62,.34-1.09,.66-2.22,.9-3.33,.11-.57,.23-1.15,.32-1.73,.13-.8,.18-1.41,.21-1.73,.17-1.78,.18-3.55,.17-4.39ZM547.18,152.89c1.71-10.34,3.04-22.27,3.33-35.55,.24-11.16-.31-21.38-1.22-30.45-.02-.2,4.54,.15,5.03,.23,2.16,.35,4.27,1.07,6.22,2.05,10.41,5.2,14.24,17.2,16.7,27.74,3.07,13.14,5.44,26.39,7.86,39.67l-37.92-3.69Z"/><path class="cls-4" d="M383.34,174.05c-121.49,57.24-210.78,168.59-239.53,300.44-.54,2.45-.8,4.86-.8,7.25,0,4.62,.95,9.07,2.68,13.15,4.48,10.51,14.18,18.5,26.46,20.11,16.48-126.33,92.81-236.06,201.68-296.88h.02c.52-.29,1.02-.58,1.51-.87,1.54-.89,2.98-1.77,4.33-2.66,32.5-21.47,4.51-39.99,3.65-40.54ZM989.67,475.89c-28.75-131.85-118.02-243.2-239.53-300.44-.89,.57-31.2,20.61,7.98,43.2,.49,.28,.99,.57,1.51,.86h.02c108.88,60.82,185.2,170.55,201.68,296.88,17.05-2.23,29.13-16.79,29.13-33.26,0-2.37-.26-4.8-.8-7.23Z"/></g><g id="letras"><path class="cls-3" d="M406.69,883.3l-67.08,120.6-16.64-9.26,18.51-33.28-16.64-9.26-18.52,33.28-16.64-9.26,67.08-120.6c3.85-6.92,12.58-9.41,19.5-5.56l24.86,13.83c6.92,3.85,9.41,12.58,5.56,19.5Zm-55.95,61.42l37.03-66.56-16.64-9.26-37.03,66.56,16.64,9.26Z"/><path class="cls-3" d="M502.04,898.23l-33.25,129.24c-2.6,10.11-12.89,16.19-23,13.59l-18.74-4.82c-10.1-2.6-16.19-12.9-13.59-23l33.24-129.24,18.44,4.74-33.21,129.09,18.44,4.74,33.21-129.09,18.44,4.74Z"/><path class="cls-3" d="M594.63,918.03l.84,120.65c.06,8.76-6.97,15.89-15.73,15.95l-41.28,.29-1.06-152.33,41.28-.29c8.76-.06,15.89,6.97,15.95,15.73Zm-19.02,3.33l-19.04,.13,.8,114.25,19.04-.13-.79-114.25Z"/><path class="cls-3" d="M688.37,896.29l36,133.21-18.38,4.97-9.93-36.76-18.38,4.97,9.94,36.76-18.38,4.97-36-133.21c-2.06-7.65,2.46-15.52,10.1-17.58l27.46-7.42c7.65-2.07,15.52,2.45,17.58,10.1Zm2.71,83.03l-19.87-73.53-18.38,4.97,19.87,73.53,18.38-4.97Z"/><path class="cls-3" d="M784.13,918.72l53.67,57.3-16.64,9.26-26.84-28.65,10.2,37.91-16.64,9.26-20.39-75.81-53.67-57.3,16.64-9.26,26.84,28.65-10.2-37.91,16.64-9.26,20.39,75.81Z"/></g><g id="bandera"><path class="cls-3" d="M512.11,553.23l-45.36-.04v-69.47l52.29,52.64c-.16,.24-.31,.49-.46,.74-2.91,4.79-5.07,10.05-6.37,15.65-.04,.16-.07,.32-.1,.48Z"/><path class="cls-3" d="M519.91,595.25l-53.16,52.81v-70.86l45.4,.04c1.37,6.04,3.75,11.67,6.95,16.75,.27,.42,.54,.84,.81,1.26Z"/><path class="cls-3" d="M537.31,611.82c4.86,2.91,10.21,5.09,15.9,6.37l-.81,241.42c-29.92-1.27-58.69-7.01-85.65-16.58v-161.13l70.56-70.08Z"/><path class="cls-3" d="M535.91,519.27l-69.16-69.63v-162.24c27.43-9.74,56.73-15.52,87.22-16.65l-.82,241.29c-6.21,1.42-12.03,3.89-17.24,7.23Z"/><path class="cls-3" d="M565.11,595.53c-16.76-.05-30.38-13.74-30.32-30.51,.06-16.78,13.76-30.38,30.53-30.32,16.77,.05,30.36,13.74,30.31,30.52-.06,16.77-13.75,30.37-30.52,30.31Z"/><path class="cls-3" d="M663.68,287.4v163.96l-68.69,68.23c-.19-.14-.39-.26-.59-.39-4.82-3.08-10.16-5.41-15.84-6.86-.46-.12-.93-.23-1.4-.33l.82-241.2c29.94,1.27,58.72,7.01,85.7,16.59Z"/><path class="cls-3" d="M611.69,536.84l51.99-51.64v67.96l-45.38-.04v-.02c-1.31-5.83-3.57-11.3-6.61-16.26Z"/><path class="cls-3" d="M618.31,577.13l45.37,.04v70.73l-52.82-53.17c3.45-5.31,6.02-11.23,7.45-17.6Z"/><path class="cls-3" d="M593.65,611.48l70.03,70.5v161.05c-27.45,9.74-56.77,15.51-87.27,16.64l.81-241.47c.33-.07,.65-.15,.98-.23,5.24-1.29,10.19-3.33,14.71-6.04,.25-.15,.5-.3,.74-.45Z"/><path class="cls-5" d="M663.68,681.98l100.2,100.88c-28.76,26.26-62.74,46.89-100.2,60.17v-161.05Z"/><path class="cls-5" d="M859.65,577.35c-2.95,72.77-32.29,138.75-78.71,188.61l-117.26-118.06v-70.73l195.97,.18Z"/><path class="cls-5" d="M766.11,349.62l-102.43,101.74v-163.96c38.44,13.61,73.21,34.98,102.43,62.22Z"/><path class="cls-5" d="M859.66,553.34l-195.98-.18v-67.96l119.31-118.52c45.29,49.65,73.83,114.85,76.67,186.66Z"/><path class="cls-2" d="M466.75,287.4v162.24l-100.82-101.5c28.89-26.54,63.08-47.37,100.82-60.74Z"/><path class="cls-2" d="M466.75,483.72v69.47l-195.96-.19c2.95-72.45,32.05-138.14,78.12-187.91l117.84,118.63Z"/><path class="cls-2" d="M466.75,577.2v70.86l-117.95,117.15c-46.09-49.85-75.17-115.66-78.03-188.2l195.98,.19Z"/><path class="cls-2" d="M365.8,782.16l100.95-100.26v161.13c-37.79-13.39-72.04-34.28-100.95-60.87Z"/></g></g></g></svg>