<?xml version="1.0" encoding="utf-8"?>
<!-- Generator: Adobe Illustrator 24.1.0, SVG Export Plug-In . SVG Version: 6.00 Build 0)  -->
<svg version="1.1" id="Capa_1" xmlns="http://www.w3.org/2000/svg" xmlns:xlink="http://www.w3.org/1999/xlink" x="0px" y="0px"
	 viewBox="0 0 245.8 404.1" style="enable-background:new 0 0 245.8 404.1;" xml:space="preserve">
<style type="text/css">
	.st0{fill-rule:evenodd;clip-rule:evenodd;fill:#F26707;}
	.st1{clip-path:url(#SVGID_3_);}
	.st2{clip-path:url(#SVGID_4_);}
	.st3{fill:none;stroke:#000000;stroke-width:3.05;stroke-linecap:round;stroke-linejoin:round;}
	
		.st4{fill-rule:evenodd;clip-rule:evenodd;fill:#FFFFFF;stroke:#000000;stroke-width:2.13;stroke-linecap:round;stroke-linejoin:round;}
	
		.st5{fill-rule:evenodd;clip-rule:evenodd;fill:#FFFFFF;stroke:#000000;stroke-width:2.44;stroke-linecap:round;stroke-linejoin:round;}
	
		.st6{fill-rule:evenodd;clip-rule:evenodd;fill:#FFEF00;stroke:#000000;stroke-width:2.44;stroke-linecap:round;stroke-linejoin:round;}
	
		.st7{fill-rule:evenodd;clip-rule:evenodd;fill:#FFEF00;stroke:#000000;stroke-width:2.74;stroke-linecap:round;stroke-linejoin:round;}
	.st8{fill-rule:evenodd;clip-rule:evenodd;stroke:#000000;stroke-width:1.79;stroke-linecap:round;stroke-linejoin:round;}
	.st9{fill:none;stroke:#000000;stroke-width:2.44;stroke-linecap:round;stroke-linejoin:round;}
	
		.st10{fill-rule:evenodd;clip-rule:evenodd;fill:#FFEF00;stroke:#000000;stroke-width:1.83;stroke-linecap:round;stroke-linejoin:round;}
	
		.st11{fill-rule:evenodd;clip-rule:evenodd;fill:#FFEF00;stroke:#000000;stroke-width:2.1;stroke-linecap:round;stroke-linejoin:round;}
	.st12{display:none;}
	.st13{display:inline;}
	.st14{display:inline;clip-path:url(#SVGID_6_);}
	.st15{display:none;fill:#FFFFFF;}
</style>
<g id="Capa_2_1_">
	<g id="Capa_1-2">
		<path class="st0" d="M47.3,160.4c0,0-41.2,21.4-45.5,64.4s32.8,98.9,106.7,100.8v17.2H40.9c0,0,1.4,42.4,0,42.3s67.6,0,67.6,0
			v17.5h30.7v-17.5h67v-42.3h-67v-17.2c0,0,101.6-8,104.9-86.5s-81.9-97-82.2-87.4C161.9,151.7,65.3,138.2,47.3,160.4L47.3,160.4z"
			/>
		<g>
			<defs>
				<polygon id="SVGID_1_" points="26.6,203.1 47.8,203.1 47.8,237.4 26.6,237.4 26.6,203.1 				"/>
			</defs>
			<defs>
				<path id="SVGID_2_" d="M47.3,160.4c0,0-41.2,21.4-45.5,64.4s32.8,98.9,106.7,100.8v17.2H40.9c0,0,1.4,42.4,0,42.3s67.6,0,67.6,0
					v17.5h30.7v-17.5h67v-42.3h-67v-17.2c0,0,101.6-8,104.9-86.5s-81.9-97-82.2-87.4C161.9,151.7,65.3,138.2,47.3,160.4L47.3,160.4z
					"/>
			</defs>
			<clipPath id="SVGID_3_">
				<use xlink:href="#SVGID_1_"  style="overflow:visible;"/>
			</clipPath>
			<clipPath id="SVGID_4_" class="st1">
				<use xlink:href="#SVGID_2_"  style="overflow:visible;"/>
			</clipPath>
			<g class="st2">
				
					<image style="overflow:visible;enable-background:new    ;" width="88" height="143" xlink:href="C1590FC3D7A0B248.png"  transform="matrix(0.24 0 0 0.24 26.65 203.08)">
				</image>
			</g>
		</g>
		<path class="st3" d="M47.3,160.4c0,0-41.2,21.4-45.5,64.4s32.8,98.9,106.7,100.8v17.2H40.9c0,0,1.4,42.4,0,42.3s67.6,0,67.6,0
			v17.5h30.7v-17.5h67v-42.3h-67v-17.2c0,0,101.6-8,104.9-86.5s-81.9-97-82.2-87.4C161.9,151.7,65.3,138.2,47.3,160.4L47.3,160.4z"
			/>
		<path class="st4" d="M124,161.3c54.6,0,98.9,32.4,98.9,72.4S178.6,306,124,306s-99-32.4-99-72.3S69.4,161.3,124,161.3z"/>
		<path class="st5" d="M124.4,172.9c37.2,0,67.4,29.6,67.4,66.1s-30.2,66-67.4,66S57,275.4,57,239S87.2,172.9,124.4,172.9
			L124.4,172.9z"/>
		<path class="st6" d="M79.5,93.3c0,0,1.4,17.1-7.1,23.7c0,0-10.4,50.2-16,57c0,0,1.1,23.8-18.7,27.2v14h69.4
			c0,0,65.1-40.4,75.5-41.2c0,0,1.2-9,0-16.1l-4.9,2.2C177.7,160.2,166.5,88.4,79.5,93.3z"/>
		<path class="st7" d="M63.3,174.1v5.3H77c0,0,6.1-5.7,8.2-12.5s3.4-8.8,8.1-12.7c0,0,3.9-5.4,2.1-18.4s-12.2-11.4-12.3-11.2
			c0,0,1.9,17.9,0,19.2s-2.8,7.6-6.1,13.2S67.9,173.7,63.3,174.1L63.3,174.1z"/>
		<path class="st7" d="M54.8,109.5c-0.2-0.2,12.3,0.1,12.3,0.1s7.3,5.7,9,14.9s7.4,33.6-12.9,49h-8.5
			C54.8,173.4,80.6,137.1,54.8,109.5L54.8,109.5z"/>
		<path class="st6" d="M76.1,122.2l6.3,2.2c0,0,7.7,15.6-6.3,32.3C76.1,156.7,80,136.6,76.1,122.2z"/>
		<path class="st6" d="M51.2,109.5c8.4,0,15.3,14.3,15.3,32s-6.8,31.9-15.3,31.9s-15.3-14.3-15.3-31.9S42.8,109.5,51.2,109.5z"/>
		<path class="st6" d="M51,115.5c5.6,0,10.1,11.3,10.1,25.1s-4.5,25.1-10.1,25.1s-10.1-11.3-10.1-25.1S45.4,115.5,51,115.5z"/>
		<path class="st8" d="M167.1,200.6l-4.5,22.8l18.7,12.9l8.9-5.1c0,0-0.5-12.2-5.8-20.9c-1.3-2.1-5.6-9-7.1-9.6L167.1,200.6z"/>
		<polygon class="st8" points="124.4,215 146.2,229.9 136.7,257.2 110.4,257.2 101.6,229.9 124.4,215 		"/>
		<line class="st9" x1="162.6" y1="223.1" x2="146.2" y2="229.9"/>
		<path class="st8" d="M146.2,270l-7.1,24l5.7,7.7c0,0,23.8-8.2,34.7-25.8l-5.7-5.9H146.2z"/>
		<path class="st8" d="M101.6,270l6.6,24l-6.6,6.1c-14.1-4.8-26.2-14.2-34.3-26.6l9.7-3.5H101.6z"/>
		<path class="st8" d="M58.7,231.5l7.9,4.8l19.1-12.7l-2.6-6.6H62.5C60.7,221.6,59.4,226.5,58.7,231.5z"/>
		<path class="st9" d="M47.3,205c0,0,28.7,2.3,52.2,2.7 M107.5,207.7c0,0,23.5-18.7,38.1-24.9 M176.6,160.4c0,0-27.3,10.2-28.1,13
			s-4.9,10,9.4,12 M152.9,188.9l14.4,11.8 M85.7,223.5l16,6.4 M123.9,205.8v9.2 M66.6,236.2l9.8,33 M101.6,269.2l9.7-12
			 M136.4,257.2l9.8,12 M172.8,269.2l8.7-33 M108.7,294.2H139"/>
		<path d="M65.7,366.9l3.5,1.2c-0.4,1.8-1.3,3.5-2.7,4.8c-1.4,1.1-3.1,1.6-4.8,1.6c-2.3,0.1-4.5-0.9-5.9-2.7
			c-1.6-2.1-2.5-4.7-2.3-7.3c0-3.3,0.8-5.8,2.3-7.6c1.5-1.8,3.8-2.8,6.1-2.7c2-0.1,4,0.7,5.4,2.1c0.9,1,1.6,2.3,1.8,3.6l-3.6,0.9
			c-0.2-0.9-0.6-1.8-1.3-2.4c-0.7-0.6-1.6-0.9-2.5-0.9c-1.3,0-2.5,0.6-3.3,1.6c-0.8,1-1.2,2.7-1.2,5.1s0.4,4.3,1.2,5.3
			c0.7,1,1.9,1.6,3.2,1.6c0.9,0,1.8-0.3,2.5-1C65,369.2,65.5,368.1,65.7,366.9L65.7,366.9z"/>
		<path d="M71.6,364.4c0-1.7,0.2-3.4,0.8-5c0.4-1,1-1.9,1.7-2.7c0.6-0.8,1.4-1.4,2.3-1.8c1.2-0.5,2.6-0.8,3.9-0.8
			c2.4-0.1,4.8,0.9,6.4,2.7c1.6,1.8,2.4,4.3,2.4,7.5c0.2,2.7-0.7,5.4-2.4,7.5c-1.6,1.8-4,2.8-6.4,2.7c-2.4,0.1-4.8-0.9-6.4-2.7
			C72.3,369.7,71.5,367.1,71.6,364.4L71.6,364.4z M75.4,364.3c-0.1,1.8,0.4,3.6,1.4,5.1c0.9,1.1,2.2,1.8,3.6,1.7
			c1.4,0,2.7-0.6,3.6-1.7c1-1.5,1.5-3.3,1.4-5.1c0.1-1.8-0.4-3.5-1.4-5c-1.7-2-4.7-2.3-6.7-0.5c-0.2,0.2-0.4,0.3-0.5,0.5
			C75.7,360.7,75.2,362.5,75.4,364.3L75.4,364.3z"/>
		<path d="M92,354.5h7.2c1.1,0,2.1,0,3.2,0.2c0.7,0.1,1.3,0.4,1.9,0.8c0.6,0.4,1.1,1,1.4,1.6c0.4,0.7,0.6,1.5,0.6,2.3
			c0,0.9-0.2,1.8-0.7,2.5c-0.4,0.7-1.1,1.4-1.9,1.7c1,0.3,1.9,0.9,2.5,1.8c0.6,0.9,0.9,1.9,0.9,3c0,0.9-0.2,1.8-0.6,2.6
			c-0.4,0.8-0.9,1.5-1.6,2c-0.7,0.5-1.6,0.9-2.5,0.9c-0.6,0.1-2.1,0.1-4.4,0.1H92V354.5z M95.7,357.7v4.5h2.4c1.4,0,2.3,0,2.7-0.1
			c0.6,0,1.1-0.3,1.5-0.7c0.4-0.4,0.6-1,0.5-1.5c0-0.5-0.1-1.1-0.5-1.5c-0.3-0.4-0.8-0.7-1.4-0.7c-0.4,0-1.4-0.1-3.1-0.1L95.7,357.7
			z M95.7,365.6v5.3h3.4c0.8,0,1.7,0,2.5-0.1c0.5-0.1,1-0.4,1.3-0.8c0.4-0.5,0.5-1.1,0.5-1.7c0-0.5-0.1-1.1-0.4-1.5
			c-0.3-0.4-0.7-0.7-1.1-0.9c-1.1-0.2-2.2-0.3-3.2-0.3H95.7z"/>
		<path d="M110.3,374.1v-19.7h7.7c1.4-0.1,2.9,0.1,4.2,0.5c0.9,0.4,1.6,1,2.1,1.9c0.5,0.9,0.8,2,0.8,3.1c0.2,2.8-1.9,5.3-4.8,5.5
			c0,0,0,0,0,0c0.7,0.5,1.4,1,2,1.6c0.8,1,1.5,2.1,2.1,3.2l2.2,3.8h-4.4l-2.7-4.3c-0.6-1-1.2-2-1.9-2.9c-0.3-0.4-0.7-0.6-1.1-0.8
			c-0.6-0.2-1.2-0.3-1.8-0.2H114v8.2L110.3,374.1z M114,362.8h2.7c1.1,0.1,2.2,0,3.3-0.2c0.4-0.2,0.8-0.4,1-0.8
			c0.3-0.4,0.4-1,0.4-1.5c0-0.6-0.1-1.1-0.5-1.6c-0.3-0.4-0.8-0.7-1.4-0.8c-0.9-0.1-1.8-0.1-2.7-0.1H114V362.8L114,362.8z"/>
		<polygon points="128.6,374.1 128.6,354.5 142,354.5 142,357.8 132.2,357.8 132.2,362.1 141.4,362.1 141.4,365.5 132.2,365.5 
			132.2,370.8 142.4,370.8 142.4,374.1 128.6,374.1 		"/>
		<path d="M144.6,367.7l3.6-0.4c0.1,1.1,0.6,2.1,1.3,2.9c0.7,0.6,1.7,1,2.6,0.9c1,0.1,1.9-0.2,2.7-0.8c0.6-0.5,0.9-1.2,0.9-1.9
			c0-0.4-0.1-0.8-0.4-1.2c-0.4-0.4-0.8-0.7-1.3-0.9c-0.4-0.2-1.4-0.5-2.9-0.9c-1.5-0.3-2.9-1-4.1-2c-1.8-1.8-2.2-4.6-0.9-6.8
			c0.5-0.9,1.3-1.6,2.3-2c1.1-0.5,2.3-0.7,3.6-0.7c1.9-0.1,3.7,0.4,5.1,1.6c1.2,1.1,1.8,2.7,1.8,4.3l-3.7,0.2
			c-0.1-0.8-0.4-1.6-1-2.2c-0.7-0.5-1.5-0.7-2.3-0.7c-0.9-0.1-1.8,0.2-2.5,0.7c-0.4,0.3-0.6,0.7-0.6,1.2c0,0.5,0.2,0.9,0.5,1.2
			c1,0.7,2.2,1.1,3.4,1.3c1.4,0.3,2.7,0.8,3.9,1.4c0.8,0.5,1.5,1.2,2,2c0.5,1,0.8,2,0.7,3.1c0,1.1-0.3,2.2-0.9,3.2
			c-0.6,1-1.4,1.7-2.4,2.2c-1.3,0.5-2.6,0.8-3.9,0.7c-1.9,0.1-3.8-0.5-5.3-1.7C145.4,371.4,144.6,369.6,144.6,367.7L144.6,367.7z"/>
		<path d="M178.7,374.1h-4l-1.6-4.5h-7.2l-1.5,4.5h-3.9l7-19.7h3.9L178.7,374.1L178.7,374.1z M172,366.3l-2.5-7.3l-2.4,7.3H172z"/>
		<polygon points="180.7,374.1 180.7,354.6 184.4,354.6 184.4,370.8 193.5,370.8 193.5,374.1 180.7,374.1 		"/>
		<path class="st10" d="M161.5,183.1c-0.2,0.1,13.8,12.2,13.8,12.3s8-14,7.8-22.5C183.1,172.9,175.7,176.1,161.5,183.1z"/>
		<polygon class="st11" points="110.4,1 118.3,25.4 144,25.4 123.2,40.5 131.1,64.9 110.4,49.8 89.7,64.9 97.6,40.5 76.8,25.4 
			102.5,25.4 110.4,1 		"/>
		<g class="st12">
			<defs>
				<polygon id="SVGID_5_" points="77.3,0.5 143.5,0.5 143.5,66.9 77.3,66.9 77.3,0.5 				"/>
			</defs>
			<clipPath id="SVGID_6_" class="st13">
				<use xlink:href="#SVGID_5_"  style="overflow:visible;"/>
			</clipPath>
			<g class="st14">
				
					<image style="overflow:visible;enable-background:new    ;" width="276" height="274" xlink:href="C1590FC3D7A0B249.png"  transform="matrix(0.24 0 0 0.24 77.33 0.53)">
				</image>
			</g>
		</g>
	</g>
</g>
<path class="st15" d="M124.7,41l7.5,23.5c0,0,0.5,1.2-0.3,1.5h-1.1l-19.8-14.5c0,0-0.6-0.3-1.5,0.6l-19,14c0,0-1.4,0.6-1.6-0.3
	c0,0-0.4-0.4,0-1.3L96.4,41L76,25.9c0,0-0.5-0.3,0-1.1c0,0-0.1-0.5,0.8-0.5h25l7.7-23.8c0,0,0.6-1.3,1.8,0l7.8,23.6l24.8,0.3
	c0,0,0.9,0.2,0.9,0.5c0,0.3,0.4,0.9-0.9,1.8L124.7,41z"/>
</svg>
