<?xml version="1.0" encoding="utf-8"?>
<!-- Generator: Adobe Illustrator 24.1.0, SVG Export Plug-In . SVG Version: 6.00 Build 0)  -->
<svg version="1.1" id="Capa_1" xmlns="http://www.w3.org/2000/svg" xmlns:xlink="http://www.w3.org/1999/xlink" x="0px" y="0px"
	 viewBox="0 0 102.2 101.2" style="enable-background:new 0 0 102.2 101.2;" xml:space="preserve">
<style type="text/css">
	.st0{fill:#25368C;}
	.st1{fill:#FFFFFF;}
	.st2{fill:#13110C;}
	.st3{fill:#FAC78F;}
	.st4{fill:none;stroke:#FFFFFF;stroke-width:0.82;}
	.st5{fill:#D22417;}
</style>
<g id="Capa_2_1_">
	<g id="Capa_1-2">
		<path class="st0" d="M49.8,100.6c-0.3-0.2-33.2-17.9-42.9-49.7C-0.7,26,7.4,7.3,7.4,7.1l0.2-0.3l0.3,0.1c4.1,1,8.4,1.4,12.6,1.4
			c10.2,0.1,20.3-2.6,29.2-7.7L50,0.5l0.2,0.1c8.9,5.1,19,7.7,29.2,7.7c4.3,0.1,8.5-0.4,12.7-1.4l0.3-0.1l0.2,0.3
			c0.1,0.2,8.1,18.9,0.5,43.8c-9.7,31.7-42.5,49.5-42.9,49.7l-0.2,0.1L49.8,100.6z"/>
		<path class="st1" d="M50,1c9,5.1,19.1,7.8,29.4,7.7c4.3,0.1,8.6-0.4,12.8-1.4c0,0,8.2,18.5,0.5,43.5C82.9,82.7,50,100.2,50,100.2
			S17.1,82.7,7.3,50.8c-7.7-25,0.5-43.5,0.5-43.5c4.2,1,8.5,1.4,12.8,1.4C30.9,8.8,41,6.1,50,1 M50,0l-0.4,0.2
			c-8.8,5.1-18.8,7.7-29,7.6c-4.2,0-8.5-0.4-12.6-1.3L7.3,6.3L7.1,7C7,7.2-1.1,26,6.5,51c9.8,31.9,42.7,49.7,43.1,49.9l0.4,0.2
			l0.4-0.2c0.3-0.2,33.3-18,43.1-49.9c7.6-25-0.5-43.9-0.5-44l-0.3-0.7L92,6.5c-4.1,0.9-8.3,1.4-12.6,1.3c-10.2,0.1-20.2-2.6-29-7.6
			L50,0z"/>
		<path class="st2" d="M34.2,23.2c0,0-1.1-2.9,0.5-3.5s1.5-5,8.2-3.1s9.3,0.8,12.6,3.4s5.8,6.7,5.2,10.2c0,0,1.4-0.4,1.2,1.6
			s1.5,3.9,0.5,6.4c0,0,1.8-0.2,5.5,9.3c2.2,5.6,5.2,10.9,9.1,15.6H32.7c0,0,2-3.7,8.5-5.7c0,0,1.6-2.8,0.8-4.2
			c-0.6-0.9-6,0.2-9.6-0.2c-1.9-0.2-2.8-0.6-2.6-3c0-0.9,0.7-1.2,0.8-3c0-1.1-0.9-0.2-0.9-2.5c0-0.3,0-0.6,0.1-1.1
			c0,0,1.8-2.1,0.4-3.2c0,0-2.2,0.1-2.4-1.3s3.1-5,3.5-6.2s0.7-2.6,0.7-2.6c0-1.4,0.6-2.7,1.6-3.6C33.5,26.4,31.7,24.3,34.2,23.2"/>
		<path class="st3" d="M33.7,26.8c0,0-1.5,1.7-1.5,3c-0.1,1.1-0.4,2.2-0.8,3.2c0,0-3.4,5-3.4,5.6s1.2,1,1.6,1c0.7-0.1,1.4,0,2,0.2
			c0.7,0.4,0.7-1.2,0.7-1.2c0.5,0.7,0.9,1.4,1.1,2.2c-0.8-0.6-1.9-0.8-2.9-0.6c0,0,0.9,0.9-0.1,2.9c1.3,0.2,2.5,0.7,3.5,1.5l0.1,0.5
			c-1.3-0.4-2.7-0.6-4.1-0.8c0,0-0.4,1.1,0.6,1.4c0,0,2.2,0.4,1.2,1.5c-0.9,0.7-1.5,1.6-1.8,2.7c-0.2,1.6,0.1,2.5,2.9,2.5
			c2.7,0,5.4-0.1,8.1-0.5c2-0.4,5-3.1,5-3.1S43,56.1,42.4,61c-0.7-0.7-1.2-1.6-1.2-2.7c-2.5,1-4.9,2.5-6.8,4.4l31.2-0.2
			c0,0-9.8-4.5-13.1-11l-0.2,1.6c-1.5-1.9-2.3-4.2-2.5-6.6l-2.1-0.4l-1.7-2.8h2.2c0,0,0.2-1-1.6-2c0,0,1.1-0.8-1.1-3.6
			c0,0,1.1-2-1.4-4.5S39.9,28.8,33.7,26.8"/>
		<path class="st2" d="M38.8,31.7c-0.7-1.1-1.8-1.8-3.1-2.1c-2-0.4-2.7,0.2-2.7,0.2c-0.7,1.8,0.2,3.8,2,4.5c0,0,0,0,0,0
			c0,0,0.4-2.6,1-2.2c0.4,0.2,0.8,0.3,1.2,0.2C37.2,32.3,37,30.7,38.8,31.7"/>
		<path class="st2" d="M42.5,39.8l-4.1,4.6c0,0,1.9-2.4-0.2-3.8C38.2,40.5,39.4,39.4,42.5,39.8"/>
		<path class="st1" d="M48.8,38.3c0,0,1.5,1.4,2.4,6.2l0.1-1.9l2.7,2.7l-3-7.5C51,37.9,51.4,40,48.8,38.3"/>
		<path class="st1" d="M33.7,26c0,0,8.7,3.6,14.6,6.6c4.3,2,8.2,4.9,11.5,8.4l-1-3.5c0,0,1.9,1,2.9,0.4s-0.5-7.1-0.5-7.1
			s0.1,1.9-3.9-0.1S39.1,19.2,35.5,20.4c-2,0.6-0.4,2.9-0.4,2.9S32.3,24,33.7,26"/>
		<path class="st3" d="M35,80.2c0,0,11.5,10,15.2,10.4c0,0,11.9-6.8,14.6-10.5L35,80.2z"/>
		<path class="st4" d="M86.6,15.9c0,0-19.5,3.7-36.6-6.4c-17.1,10-36.6,6.4-36.6,6.4S8.4,30,14.7,50.7C22.8,77,50,90.7,50,90.7
			s27.2-13.6,35.2-40C91.6,30,86.6,15.9,86.6,15.9z"/>
		<rect x="0.4" y="62.8" class="st5" width="101.4" height="17.4"/>
		<path class="st1" d="M12.2,68.8c-0.1-1.1-1-2-2.2-2c-1.8,0-3,1.3-3,4.4s1.1,4.4,2.8,4.4c1.3,0,2.4-0.9,2.5-2.2l2.4,0.5
			c-0.1,0.6-0.9,3.6-5.1,3.6c-3.2,0-5.3-2.2-5.3-6.4s2.3-6.4,5.7-6.4c2.2-0.2,4.1,1.3,4.5,3.5L12.2,68.8z"/>
		<path class="st1" d="M15.7,71.2c0-4.2,2.3-6.4,5.7-6.4s5.7,2.2,5.7,6.4s-2.4,6.4-5.7,6.4S15.7,75.4,15.7,71.2 M24.4,71.2
			c0-3.1-1.2-4.4-3-4.4s-3,1.3-3,4.4s1.2,4.4,3,4.4S24.4,74.3,24.4,71.2"/>
		<polygon class="st1" points="28.8,65.1 31.3,65.1 31.3,75.3 36.2,75.3 36.2,77.3 28.8,77.3 		"/>
		<path class="st1" d="M36.8,71.2c0-4.2,2.3-6.4,5.7-6.4s5.7,2.2,5.7,6.4s-2.3,6.4-5.7,6.4S36.8,75.4,36.8,71.2 M45.5,71.2
			c0-3.1-1.2-4.4-3-4.4s-3,1.3-3,4.4s1.2,4.4,3,4.4S45.5,74.3,45.5,71.2"/>
		<path class="st1" d="M62,68.8c-0.1-1.1-1-2-2.2-2c-1.8,0-3,1.3-3,4.4s1.1,4.4,2.8,4.4c1.3,0,2.4-0.9,2.5-2.2l2.4,0.5
			c-0.1,0.6-0.9,3.6-5.1,3.6c-3.2,0-5.3-2.2-5.3-6.4s2.3-6.4,5.7-6.4c2.2-0.2,4.1,1.3,4.5,3.5L62,68.8z"/>
		<path class="st1" d="M65.5,71.2c0-4.2,2.3-6.4,5.7-6.4S77,67,77,71.2s-2.3,6.4-5.7,6.4S65.5,75.4,65.5,71.2 M74.3,71.2
			c0-3.1-1.2-4.4-3-4.4s-3,1.3-3,4.4s1.2,4.4,3,4.4S74.3,74.3,74.3,71.2"/>
		<polygon class="st1" points="78.6,65.1 81.1,65.1 81.1,75.3 86,75.3 86,77.3 78.6,77.3 		"/>
		<path class="st1" d="M86.6,71.2c0-4.2,2.3-6.4,5.7-6.4S98,67,98,71.2s-2.3,6.4-5.7,6.4S86.5,75.4,86.6,71.2 M95.3,71.2
			c0-3.1-1.2-4.4-3-4.4s-3,1.3-3,4.4s1.2,4.4,3,4.4S95.3,74.3,95.3,71.2"/>
		<rect x="49.8" y="70.6" class="st1" width="3" height="1.5"/>
		<path class="st1" d="M63,52.9c1.6,2.9,3.9,5.3,6.7,7.1C69.7,60,66.7,55.3,63,52.9"/>
	</g>
</g>
</svg>
