<svg xmlns="http://www.w3.org/2000/svg" viewBox="0 0 84.96 98.98"><defs><style>.cls-1{fill:#fff;}.cls-2{fill:#e30613;}</style></defs><g id="Capa_2" data-name="Capa 2"><g id="Capa_1-2" data-name="Capa 1"><polygon class="cls-1" points="1.85 11.95 3.22 32.92 9.49 57.02 19.68 73.09 32.62 88.77 42.55 96.61 53.39 86.81 63.58 74.07 73.97 57.02 80.83 36.84 82.59 18.61 78.87 9.79 53 7.9 45.16 3.72 37.32 4.7 33.21 7.9 26.35 10.19 1.85 11.95"/><path class="cls-2" d="M41.58,17.05v6.59A5.73,5.73,0,0,0,44,23.37a2.78,2.78,0,0,0,.9-2.35,5.87,5.87,0,0,0-.49-3.18c-.64-.86-1.82-.79-2.78-.79m-5-3.85c2.3,0,4.6,0,6.91,0a6.29,6.29,0,0,1,4.06,1.28,6.74,6.74,0,0,1,2.21,4.74,13,13,0,0,1-.19,3.69A5.7,5.7,0,0,1,46.1,27a10,10,0,0,1-3,.47h-6.5V13.2M49.94,48.6c0,.21,1.16,1.5,1.73,1.54a.75.75,0,0,0,.8-.77c0-.32-.53-.49-1.3-.7a2.28,2.28,0,0,0-1.23-.07m-4-5.53a10.36,10.36,0,0,1,4.39,1.63c2.43,1.51,2.46,2.63,4.08,4.39s3.9,2.21,4.64,3,.91,1.2.45,1.76-1.33,1.58-1.33,1.58a3.12,3.12,0,0,1-1.69,2.88,4.42,4.42,0,0,1-3,0,1.62,1.62,0,0,0,1.09-1.44c0-.46-1-1.48-2.46-1.48a2.12,2.12,0,0,0-2.35,1.8c0,.84.52,1.19,1.79,1.75a8.13,8.13,0,0,1,2.35,1.8,3.89,3.89,0,0,1-1.9,2,2.5,2.5,0,0,1-2.77-.46c-.49-.6-.91-1.51-1.16-1.16s.28.67,1.06,1.76a1.65,1.65,0,0,1,.3,1.82,1.7,1.7,0,0,0-1.79-.74c1.29.92,2.61,4.21,3.78,4.21a3,3,0,0,0,1.93-.76C53.45,69.48,50.6,70,50.6,70c.4,1.57,2.45,1.37,2.45,1.37a2.55,2.55,0,0,1-2.3.68c2,2.61,4.58.52,4.58.52-1.92,4.06-5,3.17-5,3.17-.52,5.74-3.82,4.06-3.82,4.06,2.32-.93,1-3.3,1-3.3a2.67,2.67,0,0,1-3.36.69c2.25-2.08.71-3.38-1-4.74s-3-2.53-3-2.53a7.66,7.66,0,0,0-1.09,3.29,3.61,3.61,0,0,0,1.09,3.54c-6-3.06-7-8-7-9.44s-.32-3.53-1.92-3.53-3.09,3.37-3.09,3.37c-1.77-5.42,2.17-9.67,2.17-9.67C28.08,57.6,26.51,61,26.51,61c-2.25-5.82,3-10,2-9.72a6.55,6.55,0,0,0-2.21,1.37,10,10,0,0,1,7-8,3.44,3.44,0,0,0-3.14-.32c2.45-3.45,9.8-3.13,9.8-3.13a3.45,3.45,0,0,1-.21-2.09c.08,1.29,2,1.17,4.06,1.77a2.58,2.58,0,0,1,2.13,2.21M25.65,33.79a83.07,83.07,0,0,0-1.5,19.46A65.71,65.71,0,0,0,25.8,63.87a76.82,76.82,0,0,0,8.34,21.65,36.63,36.63,0,0,0,2.44,3.72c1.88,1.69,3.84,3.3,5.84,4.85,1.92-1.55,3.81-3.14,5.64-4.79a5.58,5.58,0,0,0,.84-1.08c.82-1.21,1.58-2.45,2.3-3.72a78.64,78.64,0,0,0,8-21.68,62,62,0,0,0,1.41-9.58A79.54,79.54,0,0,0,59,34c-11.11-.06-22.22-.14-33.34-.17m42.46-.14a75.08,75.08,0,0,1,.14,16.14,92.76,92.76,0,0,1-2.67,13.73,58.16,58.16,0,0,1-4.34,11.35A78,78,0,0,0,70.4,60.63a86.61,86.61,0,0,0,8.1-27H68.11m-62.06,0a92.9,92.9,0,0,0,3.63,16A77.92,77.92,0,0,0,23.25,74.77C22.64,73.53,22,72.28,21.52,71a78.6,78.6,0,0,1-4.63-17.11A68.59,68.59,0,0,1,16,45.43a89.06,89.06,0,0,1,.48-11.78H6.05M7.7,15.48A7.68,7.68,0,0,0,6.54,21,6.06,6.06,0,0,0,9,25.26a6.77,6.77,0,0,0,3.7,1,6.31,6.31,0,0,0,3.87-.95,5.75,5.75,0,0,0,2.21-3.72c-1.3-.37-2.59-.78-3.88-1.16a5.71,5.71,0,0,1-.48,1.5,1.88,1.88,0,0,1-3.3-.15,6.66,6.66,0,0,1-.26-2.39,3.22,3.22,0,0,1,.57-2,1.92,1.92,0,0,1,2.8-.13,3,3,0,0,1,.57,1.18l3.9-.87a5.92,5.92,0,0,0-2.31-3.42,7.3,7.3,0,0,0-4.52-.82A5.75,5.75,0,0,0,7.7,15.48m58.71-.66A7.07,7.07,0,0,0,65,19.91a6.4,6.4,0,0,0,1.79,4.31,5.47,5.47,0,0,0,3.6,1.54,7,7,0,0,0,4.67-.89,5.8,5.8,0,0,0,2.22-3.72L73.4,20a5.16,5.16,0,0,1-.48,1.5,1.88,1.88,0,0,1-3.27-.1A6.2,6.2,0,0,1,69.36,19a3.25,3.25,0,0,1,.57-2,1.93,1.93,0,0,1,2.83-.08A2.91,2.91,0,0,1,73.29,18c1.31-.29,2.6-.59,3.91-.86A5.9,5.9,0,0,0,75,13.82a6.9,6.9,0,0,0-4.32-.92,5.93,5.93,0,0,0-4.27,1.92M38.13,6.47c0,1.12,0,2.23,0,3.35-2.2,0-4.39,0-6.59,0,0,1.15,0,2.29,0,3.44l-.32,0a136.9,136.9,0,0,0-5,17.65H58.36a132.64,132.64,0,0,0-5.23-17.67h-.32c0-1.15,0-2.3,0-3.45-1.84,0-3.68,0-5.52,0,0-1.12,0-2.23,0-3.35ZM37.2,0H48.37V3.73c2.07,0,4.14,0,6.21,0,0,1.28,0,2.57,0,3.86h30.3a118.28,118.28,0,0,1-4.11,36,100.85,100.85,0,0,1-10.9,25A115.79,115.79,0,0,1,42.46,99a122.07,122.07,0,0,1-15.74-14.4A101.69,101.69,0,0,1,11.35,62.52,101.6,101.6,0,0,1,1.49,32,124.54,124.54,0,0,1,.1,7.6H29.81V3.73H37.2V0"/></g></g></svg>