<svg xmlns="http://www.w3.org/2000/svg" viewBox="0 0 57.31 113.39"><defs><style>.cls-1,.cls-6{fill:#fff;}.cls-2{fill:#1d1d1b;}.cls-2,.cls-3,.cls-4,.cls-5,.cls-6{fill-rule:evenodd;}.cls-3{fill:#ffe200;}.cls-4{fill:#fcce00;}.cls-5{fill:#fbebed;}</style></defs><g id="Capa_2" data-name="Capa 2"><g id="Capa_1-2" data-name="Capa 1"><polygon class="cls-1" points="1.31 42.58 56.34 42.58 56.47 95.23 53.77 101.28 41.55 106.67 33.2 108.29 29.85 110.16 28.89 111.39 26.2 108.69 16.52 107.06 4 101.95 1.04 93.07 1.31 42.58"/><path class="cls-2" d="M42.31,34.22a6.54,6.54,0,0,1-.24.69l-.12.21s0,.69,0,1.14a7.6,7.6,0,0,1-.27,1.35s1.81.15,2.21,2.76a1.41,1.41,0,0,1,0,.7s3.09,1.9,3.78,2.38a16.44,16.44,0,0,1,2.94,2.66c.88,1.09.64.76.64.76a46.71,46.71,0,0,1,2.56,4.3,21.27,21.27,0,0,1,.55,2.5c.07.29.09.4.09.4s-.83-.76-1.23-1.09-1.28-.95-1.6-1.16a2.91,2.91,0,0,0-.66-.29.42.42,0,0,1-.5,0c-.34-.14-.78-.48-1.19-.71a5.71,5.71,0,0,0-1.33-.51,2.9,2.9,0,0,0-.72-.12c-.18,0-.4,0-.3.12a3.1,3.1,0,0,0,.57.36c.18.1.24.1.33.47s.24,1.46.34,1.79.13.45.25.93a4.16,4.16,0,0,1,.2,1.09,7.2,7.2,0,0,0,.09.91,1.56,1.56,0,0,0-.74-.46c-.47-.12-1.24-.09-2.07-.23a5.12,5.12,0,0,1-2.66-1.07,15.32,15.32,0,0,1-1.29-1.34c-.33-.38-.47-.49-.54-.71S41,51.29,40.91,51a19.53,19.53,0,0,1-1.15-3.43,23.75,23.75,0,0,1-.49-3.27V44l-.46-.22a3.94,3.94,0,0,0-.45.82,7.14,7.14,0,0,1-.28.76c-.08.26-.24.54-.24.64s-.19,1.12-.48,2.26a7.34,7.34,0,0,1-.83,2.47,9.72,9.72,0,0,1-3.86,3,37.63,37.63,0,0,1-4.92,1.83A7.75,7.75,0,0,1,25.7,56a5.39,5.39,0,0,0-1.23.18,7.52,7.52,0,0,0-1.81.55c-.73.41-.93.67-1.19.71s-.38,0-.47,0a5.23,5.23,0,0,0-1.65-1.26c-.83-.31-.81-.43-1.38-.48a2.59,2.59,0,0,1-1-.16A3.77,3.77,0,0,1,15.19,54a7.57,7.57,0,0,1-1.88-3.45,7.41,7.41,0,0,1-.05-3,8.46,8.46,0,0,1,.17-1s-1-.13-1.09-.32a.33.33,0,0,1,0-.39.82.82,0,0,1,.45-.2l.85-.14s.6-3.05.65-3.37.07-.62.07-.62a10.41,10.41,0,0,1-.48-2.36,11.5,11.5,0,0,1,.05-2.86,15.55,15.55,0,0,0,.19-2.13v-.6l-1.4-.14A21.11,21.11,0,0,1,10.48,33a17.93,17.93,0,0,1-3.07-.9A5.5,5.5,0,0,1,5.2,30.63a3.45,3.45,0,0,1-1-2.83A18.14,18.14,0,0,1,5.7,23.13c.71-1.4,1.1-2.26,1.1-2.26s.61-1.73.93-3,.85-3.36,1.11-4.65.6-2.85.91-3.89.8-2.12.92-2.79a19.83,19.83,0,0,1,.65-2.63A4.42,4.42,0,0,1,12,2.8c.18-.2.83-.84,1-1.09s.88-1,1-1.17A1.9,1.9,0,0,1,15.22,0a1,1,0,0,1,.8.86c0,.48-.09,2.21-.09,2.21l.05.41a2.33,2.33,0,0,1,.48-1A16.6,16.6,0,0,1,18,1.34,7.58,7.58,0,0,1,20.78.51a18.87,18.87,0,0,1,6.54,1,57.9,57.9,0,0,1,5.85,2.88c1.12.66,2.08,1.47,3,2A15.64,15.64,0,0,1,40.69,10a23.44,23.44,0,0,1,1.55,2.42s4.09,2.74,5.63,3.47a16.18,16.18,0,0,1,4.64,2.91C53.64,20,54.87,22,55.23,22.42a4.26,4.26,0,0,1,1,2.28c0,.83,0,1.88,0,1.88l-6,4.17a20.26,20.26,0,0,1-4.1,2.33c-1.42.66-1.68.7-1.94.83a1.76,1.76,0,0,1-.91.38h-.69l-.26-.06"/><path class="cls-2" d="M12.6,46.82a2.38,2.38,0,0,0-.13.42c0,.18-.06.52-.06.52H4.57V72.62H26.84V56.47l.44-.09.47-.09V73.48H3.63V46.82Z"/><path class="cls-3" d="M12.32,48.08a4.13,4.13,0,0,0,.24,2.48,10,10,0,0,0,1.82,3.78A5,5,0,0,0,16.45,56a13.3,13.3,0,0,0,1.9.53,4.48,4.48,0,0,1,1.64.73c.38.32.49.73.94.82a2.13,2.13,0,0,0,1.46-.35,12,12,0,0,1,2.22-.94,2.69,2.69,0,0,1,1-.18,3.43,3.43,0,0,0,.71,0,2.61,2.61,0,0,0,.56-.15V72.62H4.57V47.76h7.84a1.87,1.87,0,0,1-.09.32"/><path class="cls-2" d="M38.48,46.82s-.37,1.57-.57,2.31a5.29,5.29,0,0,1-1,2.42,6.32,6.32,0,0,1-2,1.76c-.76.47-1.63,1-2.23,1.27s-1.09.43-1.62.66-1.5.6-1.5.6V73.48H53.73V54.41s-1.56-1.23-1.89-1.53a2.16,2.16,0,0,0-.8-.53,2.74,2.74,0,0,1-.73.07c-.2-.07-.17.09-.7-.24l-1.06-.66A11.34,11.34,0,0,1,49,52.91c.1.5.4,1.56.4,1.73a8.77,8.77,0,0,1,.07,1.16,4.09,4.09,0,0,1-.4,1.2,3.6,3.6,0,0,0-1.23-.8c-.47-.06-3.13-.16-4.22-.83a6.2,6.2,0,0,1-1.86-1.59,8.87,8.87,0,0,0-1.07-1s-.56-1.59-.76-2.23l-1-3.29-.1-.44Z"/><path class="cls-2" d="M52.14,46.82h1.59v2.67s-.83-1.56-1.06-1.89a5.43,5.43,0,0,0-.77-.78Z"/><path class="cls-2" d="M29.57,75.42H54V91c0,11.26-8.41,12.51-15.82,13.61-3.34.51-6.53,1-8.6,2.38Z"/><path class="cls-3" d="M30.66,76.34H52.9V90.49c0,10.25-7.63,11.73-14.38,12.72-3.05.47-6,.56-7.86,1.85Z"/><path class="cls-2" d="M27.75,75.42H3.34V91c0,11.26,8.4,12.51,15.81,13.61,3.35.51,6.53,1,8.6,2.38Z"/><path class="cls-4" d="M15.18,27.47a44.24,44.24,0,0,1,6-1.83,11.62,11.62,0,0,1,4.8-.36,32.45,32.45,0,0,1,6,1,11.28,11.28,0,0,1,3.28,1.52c1.09.82,1.37,1.32,2.1,1.89s2.49,2.08,2.78,2.33,1.22,1.24,1.22,1.24a1.09,1.09,0,0,0-.11-.37,1.55,1.55,0,0,0-.19-.21l0-.22s-.23-.08-.25-.18a1.71,1.71,0,0,1,0-.45,2.12,2.12,0,0,0-.33-1.43,10.43,10.43,0,0,0-2.88-2.54c-.95-.55-2-1.16-2.23-1.33l-.42-.27L34.8,26A10.64,10.64,0,0,0,28.93,24a34.56,34.56,0,0,0-7.86.34,37,37,0,0,0-4.46,1.34,2.09,2.09,0,0,0-.71.42l-.42.63a21.29,21.29,0,0,1,3.36-1.36,21,21,0,0,1,4.8-.82,14.87,14.87,0,0,1,2.48.1,8.81,8.81,0,0,1,1.09.34,16.68,16.68,0,0,0-4.67,0A26.51,26.51,0,0,0,16,26.86a3.32,3.32,0,0,0-.59.23l-.16.06ZM35.54,26a23.42,23.42,0,0,1,2.65,1.54,12.12,12.12,0,0,1,2,1.73,28.57,28.57,0,0,0-3-2.07A14.65,14.65,0,0,1,35.54,26"/><path class="cls-5" d="M15.3,28.18l-.15,2.26a18.31,18.31,0,0,1,3.6-1.71A8.27,8.27,0,0,1,20,28.62h.31a13.09,13.09,0,0,1,2.83-1.34c1.23-.32,1.9-.68,2.59-.83a6.32,6.32,0,0,0,1.12-.33,16.5,16.5,0,0,0-4.48,0,44.27,44.27,0,0,0-4.75,1.3c-1.32.36-2.33.72-2.33.72m4.91,1.36s.54-.36.76-.47a9.62,9.62,0,0,1,.94-.6c.29-.11,3.83-1.26,4.8-1.55s1.72-.58,1.72-.58,4.23.85,5.56,1.7a15.28,15.28,0,0,1,2.1,1.75c.56.4,2.63,1.83,2.82,2.08a5.7,5.7,0,0,1,.39.69s-1.24.47-1.35.9-.74,4.46-1.41,5.49a8.25,8.25,0,0,1-2,2.19,6,6,0,0,0-.94.79L32.2,45.18A7.14,7.14,0,0,1,30.8,45a1.87,1.87,0,0,1-.93-.92,5.83,5.83,0,0,0-1.78-2.18,8.55,8.55,0,0,0-2.5-.8,4.28,4.28,0,0,0-1.39-.22c-.4,0-.78.15-1.19.22s-1.28.11-1.28.11l1.75-.79,2.07.39s.69.15,1-.29.54-1,.4-1.06-.47-.38-.69,0,0,.63-.47.59-1.64-.61-2.15-.5a5.4,5.4,0,0,0-1.42.57c-.37.22-.73.66-1.27.4s-1.64-.88-1.64-1.35.52-2.21.68-3.81a42.63,42.63,0,0,0,.17-4.27,7.73,7.73,0,0,0-.11-1.4Zm-5.6,7.33a5.94,5.94,0,0,0,3.13-.73,9.83,9.83,0,0,0,1.5-1.4s-.81,4.07-.79,4.43.08.56.59,1,1,.76,1,.76a3.64,3.64,0,0,0-1.3.1c-.41.17-.93.44-1.32.63s-.91.44-1.32.66a2.11,2.11,0,0,0-.74.59.86.86,0,0,0-.09.2,9.71,9.71,0,0,0,0-1.67c-.1-.39-.29-.68-.39-1.05a10,10,0,0,1-.29-2.32c0-.79,0-1.18,0-1.18m3.21,7.68a1.68,1.68,0,0,1-.43,1.25,6,6,0,0,1-.88.82s1.13,2,1.44,2,.89,0,2-.71a3.43,3.43,0,0,0,.65-.49,3.12,3.12,0,0,1-1.22-.5,5.64,5.64,0,0,1-.5-.5,16.19,16.19,0,0,0,2.72.29,6.38,6.38,0,0,0,1.75-.25,2.56,2.56,0,0,0,.37-.2,2.16,2.16,0,0,1-.87.84l-.63.32s.86,1.2,1.48,1.29a10.28,10.28,0,0,0,3.51-.84c1.25-.49,3.21-1.32,3.21-1.32a2.6,2.6,0,0,1-1.6-.28,2.8,2.8,0,0,1-.89-.81,1.31,1.31,0,0,0,.59.75c.29.16.28.36,0,.3a2.3,2.3,0,0,1-1.64-1c-.45-.74-.4-.86-.43-1l-.06-.31a1.57,1.57,0,0,0,.12.92c0,.11-.08.17-.27.09s-1-.16-1.23-.86a5.84,5.84,0,0,1-.19-.66,2.27,2.27,0,0,0,.08.66c.07.14.05.15.05.15a.71.71,0,0,1-.41-.18c-.22-.17-.27-.25-.43-.38l-.28-.22s-.63.2-.9.26-.31.14-.55.09a2,2,0,0,1-.32-.07.83.83,0,0,1-.43.1c-.2,0-.9-.28-1-.29a1.75,1.75,0,0,0-.4,0,1.16,1.16,0,0,1-.41.55,2,2,0,0,1-.42.21l-.11,0a1.49,1.49,0,0,0,.16-.43,1.45,1.45,0,0,0,0-.44,2.64,2.64,0,0,1-.4,1,1.72,1.72,0,0,1-.75.58,1.86,1.86,0,0,1-.59.14,1.18,1.18,0,0,0,.24-.59c0-.31-.09-.4-.09-.4m20.52-7.09s.48-1.1,1.28-1.35a.83.83,0,0,1,1,.47,1.76,1.76,0,0,1,.13.36.62.62,0,0,1-.35.3,2.5,2.5,0,0,1-.37.07A4.07,4.07,0,0,1,40,38.46a2.39,2.39,0,0,1-.42.79l-.18.16a2.22,2.22,0,0,1,0-.59,2.42,2.42,0,0,0,.1-.84c0-.31-.1-.46-.26-.4s-.27.39-.41.59a6,6,0,0,1-.46.53l-.12.08s.11.28.18.54.24.7.24.7,0,.43,0,.5l0,.27a7.62,7.62,0,0,1,.68-.71,5.36,5.36,0,0,0,1.53-1.86,3.34,3.34,0,0,0-.19-2.79,1.05,1.05,0,0,0-1.3-.41,2.2,2.2,0,0,0-1,2.44"/><path class="cls-2" d="M22.8,30.46s.82.67.86,1.11-.16,1.42-.08,1.74a1,1,0,0,0,.4.74c.34.27.42.27.42.27l-.16-2s.55-.18.79-.28a5.48,5.48,0,0,1,1.26-.42,1.12,1.12,0,0,1,.8.2c.2.16.2.18.2.18a2.54,2.54,0,0,0-1.12.2c-.3.22-.54.2-.58.46s.12.38.32.2a.94.94,0,0,1,.38-.22s-.26.76-.32,1a2.28,2.28,0,0,0-.06.3,2.23,2.23,0,0,1,1.52-.74,17.6,17.6,0,0,1,2.65.2,3.38,3.38,0,0,0,1.81-.14,2.27,2.27,0,0,0,.88-.64,4.8,4.8,0,0,1-1.88,0,14.59,14.59,0,0,1-2.25-.62c-.58-.22-.84-.34-.84-.34a3,3,0,0,1,2.28-.3c1.31.36,2.33.82,2.91.88a3.63,3.63,0,0,0,.93,0l.28,0A5.09,5.09,0,0,0,30,29.4a20.42,20.42,0,0,0-7.22,1.06"/><path class="cls-4" d="M41.1,39a1.68,1.68,0,0,1,.94.71c.24.5.35.71.3.8a.6.6,0,0,1-.17.17,4.79,4.79,0,0,1-.25.8,4.41,4.41,0,0,1-1,.79c-.43.3-.46.41-.63.41a2.74,2.74,0,0,1-.58,0,.61.61,0,0,1-.23-.09,4.56,4.56,0,0,0,.83-.32,3.52,3.52,0,0,0,.5-.56c.09-.17.19-.39.19-.39a.17.17,0,0,0-.24,0,3.3,3.3,0,0,1-.55.59,1.52,1.52,0,0,1-.54.27l-.35.07a4.53,4.53,0,0,0,.52-.47,2.55,2.55,0,0,1,.62-.6,2.09,2.09,0,0,0,.58-.35c.07-.11.35-.49.41-.58s.11-.09.15-.24a1.08,1.08,0,0,0,0-.38,1.44,1.44,0,0,0-.09-.2h-.35a.76.76,0,0,1-.15.59c-.23.3-.32.36-.38.47a.91.91,0,0,1-.17.32c-.11.15-.24.37-.26.26a1.68,1.68,0,0,1,.13-.65,4.81,4.81,0,0,0,.51-.58,2.46,2.46,0,0,0,.11-.45A3.45,3.45,0,0,1,41.1,39M40,44.08s.52,1.58.61,2,.47,1.91.47,1.91a11.05,11.05,0,0,0,.12-1.25A2.22,2.22,0,0,0,41,46l.17-.08a2,2,0,0,1,.45,1,7.44,7.44,0,0,0,1.18,3c.72.85,1.19,1,1.43,1.36s.58,1.12.91,1.68.45.91.89,1.16a5,5,0,0,0,.89.38s-1.15.14-1.39,0a3.15,3.15,0,0,1-.51-.72c-.06-.11-.12-.15-.37-.15s-.38,0-.45-.18a2.26,2.26,0,0,0-.15-.26,3.26,3.26,0,0,1-1,.07,2.21,2.21,0,0,1-1.18-1.15c-.31-.67-.47-.92-.56-1.17s-.74-3.12-.88-3.75A10.42,10.42,0,0,0,40,45.78a2.94,2.94,0,0,1-.25-1l0-.73Zm4.64,5.34a4.38,4.38,0,0,1,.14.45,3,3,0,0,1,0,.43,2,2,0,0,1,.58.72,4.1,4.1,0,0,1,.16.84,1.33,1.33,0,0,1,0,.26s-.28-.45-.47-.68a2.6,2.6,0,0,0-.34-.32l-.31-.26a13.18,13.18,0,0,0,.8,1.85A2.68,2.68,0,0,0,46.53,54a3.54,3.54,0,0,1,1.09.55l.38.36s-.35-1-.46-1.3a5.38,5.38,0,0,0-.63-1.63c-.35-.43-1.13-1.34-1.26-1.51s-1-1-1-1m1.56-4.61s-.44,0-.41.2a2.2,2.2,0,0,0,.29.65,1.68,1.68,0,0,1,.17.56c0,.1.14.24-.12.17s-.39-.12-.56-.15a.76.76,0,0,0-.31,0s-.17.17.07.29a8.59,8.59,0,0,0,1.55.31,5.23,5.23,0,0,0,1.24.1.76.76,0,0,0,.29-.17,3.18,3.18,0,0,0-.39-.48c-.29-.32-.59-.41-1-.85l-.57-.64Zm-2.5-3.11a.86.86,0,0,1-.19.55c-.19.17-.19.24-.19.24l.9.48.63.36s-.22.15-.17.32a1.15,1.15,0,0,0,.19.34,4.76,4.76,0,0,1-.73-.29,1.45,1.45,0,0,1-.37-.32,1.17,1.17,0,0,0-.38-.29L43.07,43l-.22.1s-.15.19-.24.28a1.06,1.06,0,0,1-.24.17l.6.44a1.84,1.84,0,0,0,.58.43,2.83,2.83,0,0,1,.36.07c.24.08.3.08.43.2a2.93,2.93,0,0,1,.5.74c0,.14,0,.5,0,.5l.13.27s.14.12,0,.19-.07.22-.22.07a3,3,0,0,0-.54-.48,4.72,4.72,0,0,0-.67-.39l-.63-.26a4.23,4.23,0,0,0-.34-.81,4.12,4.12,0,0,0-.63-.7,1.08,1.08,0,0,1-.29.1c-.2,0-.59.16-.59.16s.23.94.48,1.1a4.74,4.74,0,0,1,.57.37,1.4,1.4,0,0,1,.39.45l.19.44a1.62,1.62,0,0,1-.31-.22,2.57,2.57,0,0,0-.41-.26s-.1.51.55,1.23a8,8,0,0,0,2.86,2,12.09,12.09,0,0,0,1.23.43s.31.29.43.24a.87.87,0,0,0,.43-.31,3.48,3.48,0,0,0,.39-.87,2.27,2.27,0,0,0,0,.56c.05.17.12.53.12.53s.87-.05,1,.14a8.94,8.94,0,0,0,.69.89,2.27,2.27,0,0,0,.75.5.65.65,0,0,1,.45-.26,5,5,0,0,1,1.66.89,9.89,9.89,0,0,1,1.13,1l.22.2a10.63,10.63,0,0,0-.7-1.85c-.48-1-1.39-2.19-2-3.22A9.05,9.05,0,0,0,49,45.35c-.95-.69-2.53-1.82-3.13-2.21S44.15,42,44.15,42Z"/><path class="cls-2" d="M0,42.57V92c0,13,9.79,14.44,17.66,15.62,3.72.54,6.48,1,8.15,2.11,1.19.79,2.84,3.65,2.84,3.65s1.67-2.88,2.87-3.65c1.66-1.09,4.43-1.57,8.13-2.11C47.51,106.45,57.31,105,57.31,92V42.57H47.09l0,0,.12.09.12.08.11.09,0,0h0l.06,0,0,0,.06,0,0,0,.06.05.07,0,.07,0,.06,0,.08.06.07,0,.08.06.09.06.09.07.09.08.09.07.11.08.1.09.11.09L49,44l.12.09.14.12.18.15.18.15.18.17v0h5.37V92c0,11.17-8.06,12.38-15.86,13.53-4.32.65-8.74,1.3-10.69,4.1-2-2.8-6.38-3.45-10.69-4.1C10.17,104.39,2.1,103.18,2.1,92V44.68h11v-.15l0-.16,0-.13,0-.15,0-.14,0-.15,0-.14,0-.13,0-.12,0-.14v-.12l0-.12,0-.12,0-.12v-.11l0-.11Z"/><path class="cls-6" d="M5.43,29.61a.64.64,0,0,0,.26.29,1.51,1.51,0,0,0,.43.17.71.71,0,0,1,.28.26l.08.13A18.69,18.69,0,0,1,7.3,26c1-2.93,1.85-3.22,2.21-4.29S10.32,19,10.81,17s1.24-5.42,1.47-6.37.61-2.46.61-2.46l-.5-2.54-.87,3.55s-1.43,6.12-1.7,7.51-.9,3.17-1.09,3.91A5.33,5.33,0,0,1,8,22.08a30.55,30.55,0,0,0-1.89,3.7,14.84,14.84,0,0,0-.61,2.82c0,.53,0,1,0,1"/><path class="cls-6" d="M13.15,6.84l.24,1.57a2.69,2.69,0,0,0,2.16,0,3.83,3.83,0,0,0,1.89-2c.46-.82,1.26-1.76,3.92-2a16.61,16.61,0,0,1,4.76.09A18.06,18.06,0,0,1,32,7.57c2.2,1.66,5.17,3.79,6.4,5.77A11.42,11.42,0,0,0,43,17.69a37,37,0,0,0,4.78,1.62c1.71.56,3.69,2.65,4.46,3.77s2.09,3.53,2.09,3.53l1-.56a17.81,17.81,0,0,0-6.18-7.67,9.92,9.92,0,0,0-1.49-.6A33.69,33.69,0,0,1,44,16.66a8.16,8.16,0,0,1-3.34-2.3c-1.06-1.26-1.59-2.22-2.37-3.09a39.08,39.08,0,0,0-6.55-5.51c-1.15-.7-4.2-2.58-6.27-2.73a17.59,17.59,0,0,0-5.76.32,5.77,5.77,0,0,0-3,1.94c-.35.56-.44,1.29-1,1.61s-.7.43-1.13.39a5.42,5.42,0,0,1-.93-.19Z"/><path class="cls-6" d="M20.05,7.68c-.15-.07-.23,0-.25.15s.17.34.08.45-.23.2-.28.28a.47.47,0,0,0,.15.39,5.15,5.15,0,0,0,.88.41c.2.07.58.24.58.24l.82.94s.26-.48.2-.58a8.26,8.26,0,0,0-.89-.86,2.06,2.06,0,0,1-.56-.5c-.13-.21-.3-.58-.36-.66a1.06,1.06,0,0,0-.37-.26m7.35,3s0,.33.08.33a.73.73,0,0,0,.26-.11s1-.88,1.14-1.06a1.55,1.55,0,0,1,.67-.38l.54,0s.3-.33.15-.5a1.75,1.75,0,0,0-.32-.28,3.34,3.34,0,0,0-.11-.78.42.42,0,0,0-.39-.19c-.11,0-.26.41-.26.41a6.07,6.07,0,0,1-.8,1.36c-.47.55-.75.94-.75.94Zm-5,1.69s.07-.35.2-.28.18.28.18.51a2.45,2.45,0,0,1-.1.84,1.15,1.15,0,0,0-.13.56c0,.17.06.56.28.52a1.94,1.94,0,0,1,.43-.09.5.5,0,0,1,.37.17c.06.11.19.28.19.37a.43.43,0,0,1,0,.17s.19-.28.32-.19a.67.67,0,0,1,.2.28.14.14,0,0,1,.19,0,.35.35,0,0,1,.15.18s.09-.12.19-.12a.69.69,0,0,1,.24.06.29.29,0,0,1,.11-.19.41.41,0,0,1,.23,0,1.08,1.08,0,0,1,.13-.37,1.55,1.55,0,0,0,.3-.32,2.26,2.26,0,0,1,.28-.3s.69.06.74-.11a1.89,1.89,0,0,0,0-.37,1,1,0,0,0-.09-.32L26.68,13l0-.24,0-1s.07-.18.17-.16a.76.76,0,0,0,.18,0,5.06,5.06,0,0,0-.22-.95,2.19,2.19,0,0,0-2-1.31,2.37,2.37,0,0,0-2,1.09,2.29,2.29,0,0,0-.31.82c0,.11,0,1,0,1m2.56,1a1.69,1.69,0,0,1,0-.83,1.21,1.21,0,0,1,.83-.86.55.55,0,0,1,.63.51,1.64,1.64,0,0,1-.3,1.4c-.19.18-.4.35-.59.3a1.23,1.23,0,0,1-.34-.13,1.89,1.89,0,0,1,.05.41c0,.09.06.41-.05.52s-.1.17-.21.15a.44.44,0,0,1-.2-.11s0,0-.13.07-.15.08-.21,0a1.62,1.62,0,0,1-.07-.56,2.23,2.23,0,0,1,.18-.74,1.3,1.3,0,0,1,.19-.15Zm-.53-.87A2,2,0,0,0,24.1,12l-.26-.24s-.39,0-.52.09a1.35,1.35,0,0,0-.26.67,3.09,3.09,0,0,0,0,.75,1.36,1.36,0,0,0,.48.51,1,1,0,0,0,.56.09,1.12,1.12,0,0,0,.41-.49,1.2,1.2,0,0,0,0-.48,1.6,1.6,0,0,0-.1-.42m-1.13,3.11c.09-.13-.08.43.11.46a1,1,0,0,0,.39,0s0,.3.15.28a.33.33,0,0,0,.22-.12.28.28,0,0,0,.21.14.26.26,0,0,0,.2-.1s.06.15.19.13a.24.24,0,0,0,.17-.13.38.38,0,0,0,.26.15c.26,0,.28-.33.28-.33a.31.31,0,0,0,.23.07A.52.52,0,0,0,26,16s0,1-.6,1.13c-.31.07-.88.19-1.14,0a4.33,4.33,0,0,1-.5-.44c-.13-.1-.36-.19-.43-.38a2.05,2.05,0,0,1-.11-.39.83.83,0,0,1,.15-.35m-.68-.54s-.16,0-.47.23-1.26,1.14-1.26,1.14l-.4.35a1.94,1.94,0,0,1-.53.35c-.3.12-.47.22-.64.29s-.49.22-.51.44,0,.27.11.3a1.8,1.8,0,0,0,.24.07s-.09-.25,0-.35.09-.2.23-.25.14-.09.22,0a2.26,2.26,0,0,0,.21.14,3.37,3.37,0,0,0,.31-.29c.15-.18.24-.46.38-.52s.21-.11.3-.07A.35.35,0,0,1,21,17l.38-.38L22,16l.49-.47a1.38,1.38,0,0,0,.29-.34c0-.07-.11-.14-.11-.14M19.35,18.5c0-.05.2.4.37.36s.22-.1.25-.15a1.51,1.51,0,0,1,.09-.16s0,.51-.37.47c-.49-.07-.32-.47-.34-.52m7.47-3.62s.17-.12.25-.1a1.79,1.79,0,0,1,.34.29l.27.24s1.17,1.08,1.4,1.2l1.21.62c.1.06.19.06.25.19a1,1,0,0,1,0,.55,1,1,0,0,1-.23.21,1,1,0,0,0-.11.25c0,.07,0,.4-.08.47s-.13.15-.28.06a.66.66,0,0,1-.27-.32c0-.08-.13-.38-.13-.38s.28.19.4.17a.36.36,0,0,0,.32-.31c.05-.24.09-.4.05-.47a.14.14,0,0,0-.15-.11h-.2s-.08,0-.16-.1,0-.21-.28-.28a1.16,1.16,0,0,0-.32-.08l-.13.21s-1.39-1.4-1.43-1.48-.62-.74-.62-.74Z"/></g></g></svg>