<?xml version="1.0" encoding="UTF-8"?>
<svg id="Capa_2" data-name="Capa 2" xmlns="http://www.w3.org/2000/svg" viewBox="0 0 555.65 815">
  <defs>
    <style>
      .cls-1 {
        fill: #1f140f;
      }

      .cls-1, .cls-2, .cls-3, .cls-4, .cls-5, .cls-6, .cls-7, .cls-8, .cls-9 {
        stroke-width: 0px;
      }

      .cls-2 {
        fill: #cacaca;
      }

      .cls-3 {
        fill: #afafaf;
      }

      .cls-4 {
        fill: #de0021;
      }

      .cls-5 {
        fill: #c2c1c1;
      }

      .cls-6 {
        fill: #fff;
      }

      .cls-7 {
        fill: #ffe300;
      }

      .cls-8 {
        fill: #ebeaea;
      }

      .cls-9 {
        fill: #0084ca;
      }
    </style>
  </defs>
  <path class="cls-9" d="m125.14,674.99v-111.82c-22.8-31.3-36.27-69.84-36.27-111.53s13.46-80.23,36.27-111.53v-138.59c-19.66-3.78-39.95-8.16-61.1-13.06v392.74c15.54,31.7,35.48,62.97,61.1,93.79Z"/>
  <path class="cls-9" d="m247.78,264.52v-47.33c-20.19-.99-40.52-2.9-61.3-5.62v74.26c18.72-10.41,39.38-17.74,61.3-21.31Z"/>
  <path class="cls-9" d="m247.78,786.55v-147.77c-21.93-3.57-42.59-10.9-61.3-21.31v120.45c18.44,16.35,38.81,32.56,61.3,48.63Z"/>
  <path class="cls-9" d="m370.39,285.73v-73.9c-20.7,2.69-41.03,4.55-61.32,5.47v47.19c21.93,3.55,42.59,10.86,61.32,21.24Z"/>
  <path class="cls-9" d="m309.07,638.81v147.02c22.5-16.03,42.87-32.21,61.32-48.53v-119.74c-18.72,10.39-39.39,17.7-61.32,21.25Z"/>
  <path class="cls-9" d="m492.83,581.07V188.49c-21.13,5-41.41,9.45-61.1,13.28v138.1c22.91,31.34,36.45,69.97,36.45,111.78s-13.54,80.43-36.45,111.78v111.12c25.61-30.72,45.56-61.88,61.1-93.47Z"/>
  <path class="cls-6" d="m385.9,456.74v3.42c0,1.09.55,1.63,1.56,1.63s1.83-.33,2.9-1.05v-7.35l-2.9,1.01c-1.17.45-1.56,1.03-1.56,2.33Z"/>
  <path class="cls-6" d="m375.18,444.77c-1.05,0-2.05.41-2.94,1.16v14.69c.89.75,1.89,1.17,2.94,1.17,1.14,0,1.82-.54,1.82-1.83v-13.37c0-1.29-.68-1.82-1.82-1.82Z"/>
  <path class="cls-6" d="m409.94,444.71h-.74c-1.36,0-1.99.68-1.99,2.02v13.09c0,1.34.63,2.02,1.99,2.02h.74c1.32,0,2.02-.68,2.02-2.02v-13.09c0-1.34-.69-2.02-2.02-2.02Z"/>
  <path class="cls-6" d="m329.28,453.4l-2.88,1.01c-1.17.45-1.57,1.03-1.57,2.33v3.42c0,1.09.59,1.63,1.57,1.63s1.85-.33,2.88-1.05v-7.35Z"/>
  <path class="cls-6" d="m457.86,451.64c0-99.05-80.28-179.35-179.34-179.35s-179.32,80.3-179.32,179.35,80.26,179.35,179.32,179.35,179.34-80.29,179.34-179.35Zm-23.25-11.13c0-3.64,1.8-5.45,5.44-5.45h1.06c3.59,0,5.36,1.77,5.36,5.36v5.25h-3.26v-5.34c0-1.5-.72-2.21-2.2-2.21h-.86c-1.48,0-2.19.71-2.19,2.21v19.2c0,1.5.71,2.22,2.19,2.22h.94c1.51,0,2.2-.72,2.2-2.22v-6.21h3.26v6.05c0,3.63-1.8,5.43-5.44,5.43h-1.06c-3.63,0-5.44-1.79-5.44-5.43v-18.86Zm-238.93-76.65v-.93c44.89-.25,81.28-36.48,81.8-81.33h1.31c.51,44.72,36.68,80.86,81.4,81.32v1.73c-44.77.45-80.97,36.67-81.4,81.45h-1.71c-.42-44.78-36.63-81.01-81.4-81.45v-.79Zm159.41,80.92c-1.02,0-1.96.32-3.06,1.1v18.66h-3.17v-29.64h3.17v8.56c.92-.89,2.09-1.72,4-1.72,2.62,0,3.85,1.5,3.85,4.06v18.73h-3.17v-18.07c0-1.17-.52-1.69-1.62-1.69Zm-14.17-.06h-.59c-1.35,0-2,.68-2,2.02v13.09c0,1.34.65,2.02,2,2.02h.63c1.32,0,2.03-.68,2.03-2.02v-4.46h3.1v4.33c0,3.39-1.72,5.1-5.11,5.1h-.72c-3.39,0-5.11-1.72-5.11-5.1v-12.85c0-3.38,1.73-5.1,5.11-5.1h.79c3.33,0,5,1.68,5,5.02v3.67h-3.13v-3.71c0-1.34-.66-2.02-2-2.02Zm-15.51,20.09c-2.56,0-3.76-1.47-3.76-3.98v-4.13c0-2.8.92-3.93,3.39-4.77l4.23-1.45v-3.75c0-1.34-.66-2.06-2-2.06h-.25c-1.32,0-1.99.72-1.99,2.06v2.79h-3.13v-2.67c0-3.38,1.74-5.1,5.11-5.1h.32c3.39,0,5.11,1.72,5.11,5.1v17.69h-3.19v-1.42c-.88.84-2.03,1.68-3.86,1.68Zm-13.52,0c-2.66,0-3.86-1.51-3.86-4.06v-18.76h3.19v18.09c0,1.17.51,1.71,1.62,1.71,1,0,1.91-.33,3.06-1.14v-18.66h3.17v22.55h-3.17v-1.45c-.95.88-2.14,1.72-4,1.72Zm-15.65-13.61v13.35h-3.31v-29.21h3.31v12.73h5.45v-12.73h3.33v29.21h-3.33v-13.35h-5.45Zm-106.05,82.69h-.83c-.43-44.78-36.63-81.01-81.42-81.46v-1.73c44.9-.23,81.29-36.48,81.77-81.32.19,0,.32,0,.48,0,.29,0,.57,0,.88,0,.49,44.71,36.65,80.86,81.4,81.32v1.73c-44.8.45-80.98,36.68-81.4,81.46h-.88Zm170.01,5.63v.78c-44.74.46-80.97,36.68-81.42,81.46h-1.68c-.43-44.78-36.62-81-81.42-81.46v-1.71c44.92-.26,81.29-36.47,81.79-81.32.15-.02.34-.02.48-.02.29,0,.57.02.83.02.51,44.7,36.7,80.86,81.42,81.31v.95Zm5.87-74.96h-3.19v-22.55h3.19v22.55Zm.05-24.83h-3.33v-3.56h3.33v3.56Zm14.06,20.62c0,2.68-1.32,4.47-4.02,4.47-1.85,0-3.16-.89-3.91-1.63v5.96h-3.17v-27.14h3.17v1.48c.75-.79,2.06-1.72,3.91-1.72,2.69,0,4.02,1.81,4.02,4.47v14.11Zm13.32,4.21h-3.14v-1.42c-.89.84-2.06,1.68-3.9,1.68-2.56,0-3.73-1.47-3.73-3.98v-4.13c0-2.8.92-3.93,3.34-4.77l4.28-1.45v-3.75c0-1.34-.68-2.06-2.02-2.06h-.25c-1.34,0-2.02.72-2.02,2.06v2.79h-3.1v-2.67c0-3.38,1.71-5.1,5.11-5.1h.32c3.36,0,5.08,1.72,5.08,5.1v17.69Zm8.93-19.63h-2.29v19.63h-3.17v-19.63h-1.52v-2.93h1.52v-3.74h3.17v3.74h2.29v2.93Zm12.69,14.78c0,3.39-1.69,5.1-5.07,5.1h-.92c-3.42,0-5.11-1.72-5.11-5.1v-12.85c0-3.38,1.69-5.1,5.11-5.1h.92c3.37,0,5.07,1.72,5.07,5.1v12.85Zm11.26-8.47v13.31h-3.31v-29.21h8.98v3.08h-5.67v9.77h5.45v3.05h-5.45Z"/>
  <path class="cls-7" d="m277.07,446.11h1.71c.43-44.78,36.63-81.01,81.4-81.45v-1.73c-44.72-.46-80.89-36.61-81.4-81.32h-1.31c-.52,44.85-36.91,81.08-81.8,81.33v1.73c44.77.45,80.98,36.67,81.4,81.45Z"/>
  <path class="cls-9" d="m278.78,457.25c-.26,0-.54-.02-.83-.02-.14,0-.32,0-.48.02-.49,44.85-36.87,81.06-81.79,81.32v1.71c44.8.46,80.98,36.68,81.42,81.46h1.68c.45-44.78,36.68-81,81.42-81.46v-1.73c-44.72-.45-80.91-36.6-81.42-81.31Z"/>
  <path class="cls-4" d="m272.47,452.41v-1.73c-44.75-.45-80.91-36.6-81.4-81.32-.31,0-.58,0-.88,0-.15,0-.29,0-.48,0-.48,44.84-36.87,81.08-81.77,81.32v1.73c44.78.45,80.98,36.68,81.42,81.46h1.71c.42-44.78,36.6-81.01,81.4-81.46Z"/>
  <path class="cls-1" d="m551.42,167.04c-227.57,59.14-314.5,59.14-547.18,0l-4.24-1.08.12,4.38c.63,23.29.9,46.71,1.15,69.37,2.29,204.71,4.46,398.06,274.77,574.12l1.8,1.17,1.81-1.17c273.13-176.98,274.16-371.47,275.25-577.37.11-21.61.23-43.95.67-66.15l.09-4.37-4.23,1.1Zm-364.94,44.52c20.79,2.73,41.11,4.64,61.3,5.62v47.33c-21.93,3.57-42.59,10.9-61.3,21.31v-74.26Zm122.59,5.73c20.29-.92,40.61-2.78,61.32-5.47v73.9c-18.72-10.39-39.39-17.69-61.32-21.24v-47.19Zm-245.03-28.83c21.15,4.91,41.44,9.28,61.1,13.06v138.59c-22.8,31.3-36.27,69.84-36.27,111.53s13.46,80.23,36.27,111.53v111.82c-25.62-30.82-45.56-62.09-61.1-93.79V188.46Zm122.43,429.01c18.72,10.41,39.38,17.74,61.3,21.31v147.77c-22.5-16.07-42.86-32.28-61.3-48.63v-120.45Zm183.91,119.84c-18.45,16.32-38.82,32.49-61.32,48.53v-147.02c21.93-3.55,42.59-10.86,61.32-21.25v119.74Zm-91.87-106.31c-99.06,0-179.32-80.29-179.32-179.35s80.26-179.35,179.32-179.35,179.34,80.3,179.34,179.35-80.28,179.35-179.34,179.35Zm153.21-67.58c22.91-31.35,36.45-69.98,36.45-111.78s-13.54-80.43-36.45-111.78v-138.1c19.69-3.83,39.97-8.28,61.1-13.28v392.58c-15.54,31.59-35.49,62.76-61.1,93.47v-111.12Z"/>
  <polygon class="cls-1" points="305.02 464.54 305.02 435.33 301.7 435.33 301.7 448.06 296.24 448.06 296.24 435.33 292.93 435.33 292.93 464.54 296.24 464.54 296.24 451.19 301.7 451.19 301.7 464.54 305.02 464.54"/>
  <path class="cls-1" d="m319.07,464.54v-22.55h-3.17v18.66c-1.16.81-2.06,1.14-3.06,1.14-1.11,0-1.62-.54-1.62-1.71v-18.09h-3.19v18.76c0,2.55,1.2,4.06,3.86,4.06,1.86,0,3.05-.84,4-1.72v1.45h3.17Z"/>
  <path class="cls-1" d="m332.46,464.54v-17.69c0-3.38-1.73-5.1-5.11-5.1h-.32c-3.37,0-5.11,1.72-5.11,5.1v2.67h3.13v-2.79c0-1.34.66-2.06,1.99-2.06h.25c1.34,0,2,.72,2,2.06v3.75l-4.23,1.45c-2.46.84-3.39,1.96-3.39,4.77v4.13c0,2.51,1.2,3.98,3.76,3.98,1.83,0,2.99-.84,3.86-1.68v1.42h3.19Zm-6.07-2.75c-.99,0-1.57-.54-1.57-1.63v-3.42c0-1.3.4-1.88,1.57-2.33l2.88-1.01v7.35c-1.03.72-1.92,1.05-2.88,1.05Z"/>
  <path class="cls-1" d="m346.05,450.44v-3.67c0-3.34-1.68-5.02-5-5.02h-.79c-3.39,0-5.11,1.72-5.11,5.1v12.85c0,3.39,1.73,5.1,5.11,5.1h.72c3.39,0,5.11-1.72,5.11-5.1v-4.33h-3.1v4.46c0,1.34-.71,2.02-2.03,2.02h-.63c-1.35,0-2-.68-2-2.02v-13.09c0-1.34.65-2.02,2-2.02h.59c1.34,0,2,.68,2,2.02v3.71h3.13Z"/>
  <path class="cls-1" d="m359.87,464.54v-18.73c0-2.56-1.23-4.06-3.85-4.06-1.91,0-3.08.83-4,1.72v-8.56h-3.17v29.64h3.17v-18.66c1.11-.78,2.05-1.1,3.06-1.1,1.09,0,1.62.52,1.62,1.69v18.07h3.17Z"/>
  <rect class="cls-1" x="362.88" y="441.99" width="3.19" height="22.55"/>
  <rect class="cls-1" x="362.78" y="436.15" width="3.33" height="3.56"/>
  <path class="cls-1" d="m376.15,441.75c-1.85,0-3.16.92-3.91,1.72v-1.48h-3.17v27.14h3.17v-5.96c.75.75,2.06,1.63,3.91,1.63,2.69,0,4.02-1.79,4.02-4.47v-14.11c0-2.66-1.32-4.47-4.02-4.47Zm.85,18.21c0,1.29-.68,1.83-1.82,1.83-1.05,0-2.05-.42-2.94-1.17v-14.69c.89-.75,1.89-1.16,2.94-1.16,1.14,0,1.82.52,1.82,1.82v13.37Z"/>
  <path class="cls-1" d="m388.41,441.75h-.32c-3.4,0-5.11,1.72-5.11,5.1v2.67h3.1v-2.79c0-1.34.68-2.06,2.02-2.06h.25c1.34,0,2.02.72,2.02,2.06v3.75l-4.28,1.45c-2.42.84-3.34,1.96-3.34,4.77v4.13c0,2.51,1.17,3.98,3.73,3.98,1.83,0,3-.84,3.9-1.68v1.42h3.14v-17.69c0-3.38-1.72-5.1-5.08-5.1Zm1.94,19c-1.06.72-1.94,1.05-2.9,1.05s-1.56-.54-1.56-1.63v-3.42c0-1.3.39-1.88,1.56-2.33l2.9-1.01v7.35Z"/>
  <polygon class="cls-1" points="400.13 438.24 396.96 438.24 396.96 441.99 395.43 441.99 395.43 444.91 396.96 444.91 396.96 464.54 400.13 464.54 400.13 444.91 402.42 444.91 402.42 441.99 400.13 441.99 400.13 438.24"/>
  <path class="cls-1" d="m410.04,441.75h-.92c-3.42,0-5.11,1.72-5.11,5.1v12.85c0,3.39,1.69,5.1,5.11,5.1h.92c3.37,0,5.07-1.72,5.07-5.1v-12.85c0-3.38-1.69-5.1-5.07-5.1Zm1.91,18.07c0,1.34-.69,2.02-2.02,2.02h-.74c-1.36,0-1.99-.68-1.99-2.02v-13.09c0-1.34.63-2.02,1.99-2.02h.74c1.32,0,2.02.68,2.02,2.02v13.09Z"/>
  <polygon class="cls-1" points="431.82 451.23 431.82 448.18 426.37 448.18 426.37 438.41 432.04 438.41 432.04 435.33 423.06 435.33 423.06 464.54 426.37 464.54 426.37 451.23 431.82 451.23"/>
  <path class="cls-1" d="m440.04,464.8h1.06c3.63,0,5.44-1.79,5.44-5.43v-6.05h-3.26v6.21c0,1.5-.69,2.22-2.2,2.22h-.94c-1.48,0-2.19-.72-2.19-2.22v-19.2c0-1.5.71-2.21,2.19-2.21h.86c1.48,0,2.2.71,2.2,2.21v5.34h3.26v-5.25c0-3.59-1.77-5.36-5.36-5.36h-1.06c-3.63,0-5.44,1.81-5.44,5.45v18.86c0,3.63,1.8,5.43,5.44,5.43Z"/>
  <g>
    <polygon class="cls-2" points="111.04 35.41 73.82 35.41 122.55 51.24 111.04 35.41"/>
    <polygon class="cls-8" points="152.67 92.69 141.16 57.28 122.55 51.24 152.67 92.69"/>
    <polygon class="cls-5" points="92.43 92.69 122.55 70.81 122.55 51.24 92.43 92.69"/>
    <polygon class="cls-8" points="171.28 35.41 134.06 35.41 122.55 51.24 171.28 35.41"/>
    <polygon class="cls-3" points="122.55 70.81 152.67 92.69 122.55 51.24 122.55 70.81"/>
    <polygon class="cls-8" points="103.94 57.28 92.43 92.69 122.55 51.24 103.94 57.28"/>
    <polygon class="cls-8" points="122.55 0 111.04 35.41 122.55 51.24 122.55 0"/>
    <polygon class="cls-5" points="134.06 35.41 122.55 0 122.55 51.24 134.06 35.41"/>
    <polygon class="cls-5" points="122.55 51.24 73.82 35.41 103.94 57.28 122.55 51.24"/>
    <polygon class="cls-5" points="141.16 57.28 171.28 35.41 122.55 51.24 141.16 57.28"/>
    <polygon class="cls-2" points="422.22 35.41 384.99 35.41 433.72 51.24 422.22 35.41"/>
    <polygon class="cls-8" points="463.84 92.69 452.34 57.28 433.72 51.24 463.84 92.69"/>
    <polygon class="cls-5" points="403.6 92.69 433.72 70.81 433.72 51.24 403.6 92.69"/>
    <polygon class="cls-8" points="482.45 35.41 445.22 35.41 433.72 51.24 482.45 35.41"/>
    <polygon class="cls-3" points="433.72 70.81 463.84 92.69 433.72 51.24 433.72 70.81"/>
    <polygon class="cls-8" points="415.11 57.28 403.6 92.69 433.72 51.24 415.11 57.28"/>
    <polygon class="cls-8" points="433.72 0 422.22 35.41 433.72 51.24 433.72 0"/>
    <polygon class="cls-5" points="445.22 35.41 433.72 0 433.72 51.24 445.22 35.41"/>
    <polygon class="cls-5" points="433.72 51.24 384.99 35.41 415.11 57.28 433.72 51.24"/>
    <polygon class="cls-5" points="452.34 57.28 482.45 35.41 433.72 51.24 452.34 57.28"/>
    <polygon class="cls-2" points="267.22 35.41 229.99 35.41 278.72 51.24 267.22 35.41"/>
    <polygon class="cls-8" points="308.84 92.69 297.34 57.28 278.72 51.24 308.84 92.69"/>
    <polygon class="cls-5" points="248.6 92.69 278.72 70.81 278.72 51.24 248.6 92.69"/>
    <polygon class="cls-8" points="327.45 35.41 290.22 35.41 278.72 51.24 327.45 35.41"/>
    <polygon class="cls-3" points="278.72 70.81 308.84 92.69 278.72 51.24 278.72 70.81"/>
    <polygon class="cls-8" points="260.11 57.28 248.6 92.69 278.72 51.24 260.11 57.28"/>
    <polygon class="cls-8" points="278.72 0 267.22 35.41 278.72 51.24 278.72 0"/>
    <polygon class="cls-5" points="290.22 35.41 278.72 0 278.72 51.24 290.22 35.41"/>
    <polygon class="cls-5" points="278.72 51.24 229.99 35.41 260.11 57.28 278.72 51.24"/>
    <polygon class="cls-5" points="297.34 57.28 327.45 35.41 278.72 51.24 297.34 57.28"/>
  </g>
</svg>